<svg width="81" height="96" viewBox="0 0 81 96" fill="none" xmlns="http://www.w3.org/2000/svg">
  <path d="M33.1392 17.232V2.736L30.6912 4.536V1.944L33.1392 0.144001H35.5872V17.232H33.1392Z" fill="black" />
  <path
    d="M42.7648 17.232V14.928L47.1808 6.6C47.4048 6.184 47.5328 5.824 47.5648 5.52C47.5968 5.2 47.6128 4.808 47.6128 4.344C47.6128 4.136 47.6048 3.92 47.5888 3.696C47.5888 3.456 47.5488 3.248 47.4688 3.072C47.3888 2.896 47.2688 2.752 47.1088 2.64C46.9488 2.512 46.7168 2.448 46.4128 2.448C46.0448 2.448 45.7488 2.552 45.5248 2.76C45.3168 2.968 45.2128 3.272 45.2128 3.672V5.064H42.7648V3.72C42.7648 3.208 42.8608 2.728 43.0528 2.28C43.2448 1.832 43.5088 1.44 43.8448 1.104C44.1648 0.768001 44.5488 0.504001 44.9968 0.312C45.4448 0.104 45.9248 0 46.4368 0C47.0768 0 47.6208 0.12 48.0688 0.360001C48.5328 0.584001 48.9168 0.896001 49.2208 1.296C49.5088 1.696 49.7168 2.152 49.8448 2.664C49.9888 3.176 50.0608 3.72 50.0608 4.296C50.0608 4.712 50.0528 5.064 50.0368 5.352C50.0208 5.624 49.9888 5.888 49.9408 6.144C49.8928 6.4 49.8128 6.656 49.7008 6.912C49.5888 7.168 49.4368 7.48 49.2448 7.848L45.6448 14.784H50.0608V17.232H42.7648Z"
    fill="black" />
  <path
    d="M75.904 46.344C76.64 46.344 77.144 46.256 77.416 46.08C77.704 45.904 77.848 45.496 77.848 44.856V42.648C77.848 42.296 77.736 42.008 77.512 41.784C77.304 41.56 77.016 41.448 76.648 41.448C76.216 41.448 75.904 41.584 75.712 41.856C75.536 42.128 75.448 42.392 75.448 42.648V44.04H73V42.624C73 42.128 73.096 41.656 73.288 41.208C73.48 40.76 73.744 40.376 74.08 40.056C74.416 39.736 74.808 39.48 75.256 39.288C75.704 39.096 76.184 39 76.696 39C77.368 39 77.92 39.136 78.352 39.408C78.8 39.664 79.136 39.928 79.36 40.2C79.52 40.392 79.656 40.584 79.768 40.776C79.896 40.968 80 41.2 80.08 41.472C80.224 42 80.296 42.784 80.296 43.824C80.296 44.416 80.28 44.896 80.248 45.264C80.232 45.632 80.176 45.936 80.08 46.176C79.968 46.432 79.808 46.648 79.6 46.824C79.408 47 79.136 47.192 78.784 47.4C79.168 47.64 79.456 47.864 79.648 48.072C79.856 48.28 80.008 48.52 80.104 48.792C80.2 49.08 80.256 49.424 80.272 49.824C80.288 50.208 80.296 50.704 80.296 51.312C80.296 51.872 80.28 52.336 80.248 52.704C80.232 53.072 80.2 53.376 80.152 53.616C80.104 53.872 80.04 54.088 79.96 54.264C79.88 54.44 79.776 54.624 79.648 54.816C79.344 55.264 78.952 55.64 78.472 55.944C78.008 56.232 77.392 56.376 76.624 56.376C76.24 56.376 75.832 56.312 75.4 56.184C74.968 56.056 74.576 55.848 74.224 55.56C73.872 55.272 73.576 54.896 73.336 54.432C73.112 53.968 73 53.4 73 52.728V51.336H75.448V52.608C75.448 52.992 75.552 53.312 75.76 53.568C75.984 53.808 76.28 53.928 76.648 53.928C77.016 53.928 77.304 53.808 77.512 53.568C77.736 53.312 77.848 52.976 77.848 52.56V50.112C77.848 49.44 77.72 49 77.464 48.792C77.32 48.664 77.12 48.584 76.864 48.552C76.624 48.52 76.304 48.504 75.904 48.504V46.344Z"
    fill="black" />
  <path
    d="M43.408 78.144L40.624 85.32L40.672 85.368C40.752 85.304 40.872 85.256 41.032 85.224C41.208 85.176 41.432 85.152 41.704 85.152C42.136 85.152 42.536 85.256 42.904 85.464C43.272 85.672 43.56 85.936 43.768 86.256C43.88 86.432 43.968 86.608 44.032 86.784C44.096 86.96 44.152 87.192 44.2 87.48C44.232 87.768 44.256 88.136 44.272 88.584C44.288 89.016 44.296 89.568 44.296 90.24C44.296 90.8 44.288 91.264 44.272 91.632C44.256 91.984 44.232 92.28 44.2 92.52C44.152 92.776 44.088 92.992 44.008 93.168C43.944 93.344 43.856 93.528 43.744 93.72C43.424 94.248 42.992 94.656 42.448 94.944C41.92 95.232 41.32 95.376 40.648 95.376C39.976 95.376 39.376 95.232 38.848 94.944C38.32 94.64 37.896 94.232 37.576 93.72C37.448 93.528 37.344 93.344 37.264 93.168C37.2 92.992 37.152 92.776 37.12 92.52C37.072 92.28 37.04 91.984 37.024 91.632C37.008 91.264 37 90.8 37 90.24C37 89.712 37.008 89.28 37.024 88.944C37.04 88.592 37.064 88.288 37.096 88.032C37.128 87.792 37.176 87.576 37.24 87.384C37.304 87.176 37.376 86.96 37.456 86.736L40.672 78.144H43.408ZM41.848 88.536C41.848 88.168 41.728 87.872 41.488 87.648C41.248 87.424 40.968 87.312 40.648 87.312C40.328 87.312 40.048 87.424 39.808 87.648C39.568 87.872 39.448 88.168 39.448 88.536V91.704C39.448 92.072 39.568 92.368 39.808 92.592C40.048 92.816 40.328 92.928 40.648 92.928C40.968 92.928 41.248 92.816 41.488 92.592C41.728 92.368 41.848 92.072 41.848 91.704V88.536Z"
    fill="black" />
  <path
    d="M78.1486 68.2508C78.1486 66.6878 76.8815 65.4207 75.3185 65.4207C73.7554 65.4207 72.4883 66.6878 72.4883 68.2508C72.4883 69.8139 73.7554 71.081 75.3185 71.081C76.8815 71.081 78.1486 69.8139 78.1486 68.2508Z"
    fill="black" />
  <path
    d="M63.9977 82.4018C63.9977 80.8387 62.7306 79.5716 61.1675 79.5716C59.6044 79.5716 58.3373 80.8387 58.3373 82.4018C58.3373 83.9649 59.6044 85.232 61.1675 85.232C62.7306 85.232 63.9977 83.9649 63.9977 82.4018Z"
    fill="black" />
  <path
    d="M22.9602 82.4018C22.9602 80.8387 21.6931 79.5716 20.13 79.5716C18.5669 79.5716 17.2998 80.8387 17.2998 82.4018C17.2998 83.9649 18.5669 85.232 20.13 85.232C21.6931 85.232 22.9602 83.9649 22.9602 82.4018Z"
    fill="black" />
  <path
    d="M8.80922 68.2508C8.80922 66.6878 7.5421 65.4207 5.97903 65.4207C4.41596 65.4207 3.14884 66.6878 3.14884 68.2508C3.14884 69.8139 4.41596 71.081 5.97903 71.081C7.5421 71.081 8.80922 69.8139 8.80922 68.2508Z"
    fill="black" />
  <path
    d="M8.80922 28.6283C8.80922 27.0652 7.5421 25.7981 5.97903 25.7981C4.41596 25.7981 3.14884 27.0652 3.14884 28.6283C3.14884 30.1913 4.41596 31.4584 5.97903 31.4584C7.5421 31.4584 8.80922 30.1913 8.80922 28.6283Z"
    fill="black" />
  <path
    d="M22.9602 13.0624C22.9602 11.4993 21.6931 10.2322 20.13 10.2322C18.5669 10.2322 17.2998 11.4993 17.2998 13.0624C17.2998 14.6255 18.5669 15.8926 20.13 15.8926C21.6931 15.8926 22.9602 14.6255 22.9602 13.0624Z"
    fill="black" />
  <path
    d="M62.5828 14.4773C62.5828 12.9142 61.3157 11.6471 59.7526 11.6471C58.1895 11.6471 56.9224 12.9142 56.9224 14.4773C56.9224 16.0404 58.1895 17.3075 59.7526 17.3075C61.3157 17.3075 62.5828 16.0404 62.5828 14.4773Z"
    fill="black" />
  <path
    d="M76.7337 28.6283C76.7337 27.0652 75.4666 25.7981 73.9036 25.7981C72.3405 25.7981 71.0734 27.0652 71.0734 28.6283C71.0734 30.1913 72.3405 31.4584 73.9036 31.4584C75.4666 31.4584 76.7337 30.1913 76.7337 28.6283Z"
    fill="black" />
  <path
    d="M0.888 55.232L3.672 48.056L3.624 48.008C3.544 48.072 3.416 48.128 3.24 48.176C3.08 48.208 2.864 48.224 2.592 48.224C2.16 48.224 1.76 48.12 1.392 47.912C1.024 47.704 0.736 47.44 0.528 47.12C0.416 46.96 0.328 46.792 0.264 46.616C0.2 46.424 0.152 46.184 0.12 45.896C0.072 45.608 0.04 45.248 0.024 44.816C0.00799999 44.368 0 43.808 0 43.136C0 42.576 0.00799999 42.12 0.024 41.768C0.04 41.4 0.072 41.088 0.12 40.832C0.152 40.592 0.2 40.384 0.264 40.208C0.344 40.032 0.44 39.848 0.552 39.656C0.872 39.128 1.296 38.72 1.824 38.432C2.368 38.144 2.976 38 3.648 38C4.32 38 4.92 38.152 5.448 38.456C5.976 38.744 6.4 39.144 6.72 39.656C6.832 39.848 6.928 40.032 7.008 40.208C7.088 40.384 7.152 40.592 7.2 40.832C7.232 41.088 7.256 41.4 7.272 41.768C7.288 42.12 7.296 42.576 7.296 43.136C7.296 43.664 7.288 44.104 7.272 44.456C7.256 44.792 7.232 45.08 7.2 45.32C7.152 45.576 7.096 45.808 7.032 46.016C6.984 46.208 6.92 46.416 6.84 46.64L3.624 55.232H0.888ZM2.448 44.84C2.448 45.208 2.568 45.504 2.808 45.728C3.048 45.952 3.328 46.064 3.648 46.064C3.968 46.064 4.248 45.952 4.488 45.728C4.728 45.504 4.848 45.208 4.848 44.84V41.672C4.848 41.304 4.728 41.008 4.488 40.784C4.248 40.56 3.968 40.448 3.648 40.448C3.328 40.448 3.048 40.56 2.808 40.784C2.568 41.008 2.448 41.304 2.448 41.672V44.84Z"
    fill="black" />
</svg>