<svg width="89" height="91" viewBox="0 0 89 91" fill="none" xmlns="http://www.w3.org/2000/svg">
  <path
    d="M81.6891 66.1068C81.6891 64.5438 80.422 63.2767 78.8589 63.2767C77.2958 63.2767 76.0287 64.5438 76.0287 66.1068C76.0287 67.6699 77.2958 68.937 78.8589 68.937C80.422 68.937 81.6891 67.6699 81.6891 66.1068Z"
    fill="black" />
  <path
    d="M67.5381 80.2578C67.5381 78.6947 66.271 77.4276 64.7079 77.4276C63.1449 77.4276 61.8777 78.6947 61.8777 80.2578C61.8777 81.8209 63.1449 83.088 64.7079 83.088C66.271 83.088 67.5381 81.8209 67.5381 80.2578Z"
    fill="black" />
  <path
    d="M26.5006 80.2578C26.5006 78.6947 25.2335 77.4276 23.6704 77.4276C22.1074 77.4276 20.8402 78.6947 20.8402 80.2578C20.8402 81.8209 22.1074 83.088 23.6704 83.088C25.2335 83.088 26.5006 81.8209 26.5006 80.2578Z"
    fill="black" />
  <path
    d="M12.3497 66.1068C12.3497 64.5438 11.0825 63.2767 9.51947 63.2767C7.9564 63.2767 6.68928 64.5438 6.68928 66.1068C6.68928 67.6699 7.9564 68.937 9.51947 68.937C11.0825 68.937 12.3497 67.6699 12.3497 66.1068Z"
    fill="black" />
  <path
    d="M12.3497 26.4843C12.3497 24.9212 11.0825 23.6541 9.51947 23.6541C7.9564 23.6541 6.68928 24.9212 6.68928 26.4843C6.68928 28.0473 7.9564 29.3144 9.51947 29.3144C11.0825 29.3144 12.3497 28.0473 12.3497 26.4843Z"
    fill="black" />
  <path
    d="M26.5006 10.9184C26.5006 9.35532 25.2335 8.0882 23.6704 8.0882C22.1074 8.0882 20.8402 9.35532 20.8402 10.9184C20.8402 12.4815 22.1074 13.7486 23.6704 13.7486C25.2335 13.7486 26.5006 12.4815 26.5006 10.9184Z"
    fill="black" />
  <path
    d="M66.1232 12.3333C66.1232 10.7702 64.8561 9.5031 63.293 9.5031C61.73 9.5031 60.4628 10.7702 60.4628 12.3333C60.4628 13.8964 61.73 15.1635 63.293 15.1635C64.8561 15.1635 66.1232 13.8964 66.1232 12.3333Z"
    fill="black" />
  <path
    d="M80.2742 26.4843C80.2742 24.9212 79.0071 23.6541 77.444 23.6541C75.8809 23.6541 74.6138 24.9212 74.6138 26.4843C74.6138 28.0473 75.8809 29.3144 77.444 29.3144C79.0071 29.3144 80.2742 28.0473 80.2742 26.4843Z"
    fill="black" />
  <path
    d="M29.9788 17.088L33.4348 8.136L30.2428 0H32.8348L34.6828 5.064L36.5548 0H39.1468L35.8828 8.136L39.4108 17.088H36.8188L34.6828 11.328L32.5708 17.088H29.9788Z"
    fill="black" />
  <path d="M44.1789 17.088V0H46.6269V17.088H44.1789Z" fill="black" />
  <path d="M52.6773 17.088V0H55.1253V17.088H52.6773Z" fill="black" />
  <path d="M68.9656 55.088V38H71.4136V55.088H68.9656Z" fill="black" />
  <path d="M77.4641 55.088V38H79.9121V55.088H77.4641Z" fill="black" />
  <path d="M85.9625 55.088V38H88.4105V55.088H85.9625Z" fill="black" />
  <path d="M44.5093 73L41.0053 90.088H38.8453L35.3653 73H37.9573L39.9013 84.928H39.9493L41.9173 73H44.5093Z"
    fill="black" />
  <path d="M49.6508 90.088V73H52.0988V90.088H49.6508Z" fill="black" />
  <path d="M0 56.088V39H2.448V56.088H0Z" fill="black" />
  <path
    d="M7.22644 56.088L10.6824 47.136L7.49044 39H10.0824L11.9304 44.064L13.8024 39H16.3944L13.1304 47.136L16.6584 56.088H14.0664L11.9304 50.328L9.81844 56.088H7.22644Z"
    fill="black" />
</svg>