<svg xmlns="http://www.w3.org/2000/svg" xmlns:xlink="http://www.w3.org/1999/xlink" width="1920" zoomAndPan="magnify" viewBox="0 0 1440 809.999993" height="1080" preserveAspectRatio="xMidYMid meet" version="1.0"><defs><filter x="0%" y="0%" width="100%" height="100%" id="4aef178a48"><feColorMatrix values="0 0 0 0 1 0 0 0 0 1 0 0 0 0 1 0 0 0 1 0" color-interpolation-filters="sRGB"/></filter><g/><clipPath id="0790bf11cc"><path d="M 0.121094 159 L 1 159 L 1 160 L 0.121094 160 Z M 0.121094 159 " clip-rule="nonzero"/></clipPath><clipPath id="bec69f69e1"><rect x="0" width="518" y="0" height="232"/></clipPath><clipPath id="ff78c577d6"><path d="M 0.558594 159 L 1 159 L 1 160 L 0.558594 160 Z M 0.558594 159 " clip-rule="nonzero"/></clipPath><clipPath id="d5ec3ff341"><rect x="0" width="400" y="0" height="232"/></clipPath><clipPath id="146e7df774"><path d="M 74.113281 57.238281 L 837.613281 57.238281 L 837.613281 753.238281 L 74.113281 753.238281 Z M 74.113281 57.238281 " clip-rule="nonzero"/></clipPath><clipPath id="ed5f114076"><path d="M 0.113281 0.238281 L 763.613281 0.238281 L 763.613281 696.238281 L 0.113281 696.238281 Z M 0.113281 0.238281 " clip-rule="nonzero"/></clipPath><clipPath id="b672be7a53"><path d="M 120.863281 0.238281 L 723.113281 0.238281 L 723.113281 696.238281 L 120.863281 696.238281 Z M 120.863281 0.238281 " clip-rule="nonzero"/></clipPath><linearGradient x1="-209.248" gradientTransform="matrix(0.749711, 0, 0, 0.750393, 277.739033, 277.714604)" y1="93.5" x2="594.060979" gradientUnits="userSpaceOnUse" y2="93.5" id="87d111f1cd"><stop stop-opacity="1" stop-color="rgb(75.689697%, 61.569214%, 27.839661%)" offset="0"/><stop stop-opacity="1" stop-color="rgb(75.689697%, 61.569214%, 27.839661%)" offset="0.25"/><stop stop-opacity="1" stop-color="rgb(75.689697%, 61.569214%, 27.839661%)" offset="0.375"/><stop stop-opacity="1" stop-color="rgb(75.689697%, 61.569214%, 27.839661%)" offset="0.4375"/><stop stop-opacity="1" stop-color="rgb(75.689697%, 61.569214%, 27.839661%)" offset="0.453125"/><stop stop-opacity="1" stop-color="rgb(75.727844%, 61.654663%, 28.025818%)" offset="0.460937"/><stop stop-opacity="1" stop-color="rgb(76.249695%, 62.802124%, 30.508423%)" offset="0.464844"/><stop stop-opacity="1" stop-color="rgb(76.731873%, 63.864136%, 32.804871%)" offset="0.46875"/><stop stop-opacity="1" stop-color="rgb(77.21405%, 64.924622%, 35.101318%)" offset="0.472656"/><stop stop-opacity="1" stop-color="rgb(77.696228%, 65.986633%, 37.397766%)" offset="0.476562"/><stop stop-opacity="1" stop-color="rgb(78.178406%, 67.047119%, 39.692688%)" offset="0.480469"/><stop stop-opacity="1" stop-color="rgb(78.660583%, 68.109131%, 41.989136%)" offset="0.484375"/><stop stop-opacity="1" stop-color="rgb(79.142761%, 69.169617%, 44.285583%)" offset="0.488281"/><stop stop-opacity="1" stop-color="rgb(79.624939%, 70.231628%, 46.582031%)" offset="0.492187"/><stop stop-opacity="1" stop-color="rgb(80.107117%, 71.292114%, 48.878479%)" offset="0.496094"/><stop stop-opacity="1" stop-color="rgb(80.589294%, 72.354126%, 51.174927%)" offset="0.5"/><stop stop-opacity="1" stop-color="rgb(81.071472%, 73.414612%, 53.469849%)" offset="0.503906"/><stop stop-opacity="1" stop-color="rgb(81.55365%, 74.476624%, 55.766296%)" offset="0.507812"/><stop stop-opacity="1" stop-color="rgb(82.035828%, 75.537109%, 58.062744%)" offset="0.511719"/><stop stop-opacity="1" stop-color="rgb(82.518005%, 76.599121%, 60.359192%)" offset="0.515625"/><stop stop-opacity="1" stop-color="rgb(83.000183%, 77.659607%, 62.654114%)" offset="0.519531"/><stop stop-opacity="1" stop-color="rgb(83.482361%, 78.721619%, 64.950562%)" offset="0.523438"/><stop stop-opacity="1" stop-color="rgb(83.964539%, 79.782104%, 67.247009%)" offset="0.527344"/><stop stop-opacity="1" stop-color="rgb(84.446716%, 80.844116%, 69.543457%)" offset="0.53125"/><stop stop-opacity="1" stop-color="rgb(84.928894%, 81.904602%, 71.838379%)" offset="0.535156"/><stop stop-opacity="1" stop-color="rgb(85.411072%, 82.966614%, 74.134827%)" offset="0.539062"/><stop stop-opacity="1" stop-color="rgb(85.449219%, 83.052063%, 74.320984%)" offset="0.546875"/><stop stop-opacity="1" stop-color="rgb(85.488892%, 83.139038%, 74.508667%)" offset="0.5625"/><stop stop-opacity="1" stop-color="rgb(85.488892%, 83.139038%, 74.508667%)" offset="0.625"/><stop stop-opacity="1" stop-color="rgb(85.488892%, 83.139038%, 74.508667%)" offset="0.75"/><stop stop-opacity="1" stop-color="rgb(85.488892%, 83.139038%, 74.508667%)" offset="1"/></linearGradient><clipPath id="9f28730efb"><rect x="0" width="764" y="0" height="697"/></clipPath><clipPath id="fa8e014d5a"><path d="M 0.113281 0.238281 L 763.613281 0.238281 L 763.613281 696.238281 L 0.113281 696.238281 Z M 0.113281 0.238281 " clip-rule="nonzero"/></clipPath><clipPath id="d5f8182f39"><rect x="0" width="764" y="0" height="697"/></clipPath><clipPath id="3be3e0072d"><rect x="0" width="764" y="0" height="697"/></clipPath><mask id="6d186e54f3"><g filter="url(#4aef178a48)"><g transform="matrix(1, 0, 0, 1, 0, 0.000000000000042633)"><g clip-path="url(#3be3e0072d)"><g clip-path="url(#fa8e014d5a)"><g transform="matrix(1, 0, 0, 1, 0, 0.000000000000042633)"><g clip-path="url(#d5f8182f39)"><g fill="#000000" fill-opacity="1"><g transform="translate(398.000091, 400.736716)"><g><path d="M 8.3125 -66.5625 L 8.3125 -69.328125 L 67.390625 -69.328125 L 67.390625 -66.5625 Z M 8.3125 -66.5625 "/></g></g></g></g></g></g></g></g></g></mask><clipPath id="ecd19ecdf5"><path d="M 120.863281 0.238281 L 723.113281 0.238281 L 723.113281 696.238281 L 120.863281 696.238281 Z M 120.863281 0.238281 " clip-rule="nonzero"/></clipPath><clipPath id="4765fa6371"><rect x="0" width="764" y="0" height="697"/></clipPath><clipPath id="4a81473fe2"><rect x="0" width="764" y="0" height="697"/></clipPath></defs><g transform="matrix(1, 0, 0, 1, 453, 289)"><g clip-path="url(#bec69f69e1)"><g clip-path="url(#0790bf11cc)"><g fill="#c19d47" fill-opacity="1"><g transform="translate(0.419149, 159.44495)"><g/></g></g></g><g fill="#c19d47" fill-opacity="1"><g transform="translate(63.291122, 159.44495)"><g><path d="M 88.3125 -112.40625 C 88.976562 -112.40625 89.3125 -111.1875 89.3125 -108.75 C 89.3125 -106.3125 88.722656 -103.453125 87.546875 -100.171875 C 86.378906 -96.898438 84.800781 -93.773438 82.8125 -90.796875 C 80.820312 -87.816406 78.503906 -85.046875 75.859375 -82.484375 C 73.210938 -79.929688 70.421875 -77.722656 67.484375 -75.859375 C 61.109375 -71.890625 55.332031 -69.90625 50.15625 -69.90625 C 44.988281 -69.90625 41.125 -71.164062 38.5625 -73.6875 C 36.007812 -76.21875 34.734375 -79.300781 34.734375 -82.9375 C 34.734375 -86.582031 35.707031 -90.148438 37.65625 -93.640625 C 39.613281 -97.128906 42.335938 -100.554688 45.828125 -103.921875 C 53.703125 -111.316406 63.175781 -116.878906 74.25 -120.609375 C 82.726562 -123.429688 93.734375 -124.84375 107.265625 -124.84375 C 115.859375 -124.84375 124.15625 -123.972656 132.15625 -122.234375 C 138.894531 -121.035156 144.578125 -120.4375 149.203125 -120.4375 C 153.835938 -120.4375 157.820312 -120.867188 161.15625 -121.734375 C 164.5 -122.609375 167.613281 -123.769531 170.5 -125.21875 C 176.632812 -128.34375 181.023438 -131.976562 183.671875 -136.125 C 184.265625 -137.144531 184.863281 -137.65625 185.46875 -137.65625 C 186.070312 -137.65625 186.375 -137.296875 186.375 -136.578125 C 186.375 -135.859375 185.304688 -134.203125 183.171875 -131.609375 C 181.035156 -129.023438 178.207031 -126.585938 174.6875 -124.296875 C 171.175781 -122.015625 167.253906 -120.035156 162.921875 -118.359375 C 153.773438 -114.867188 144.210938 -113.125 134.234375 -113.125 C 127.972656 -113.125 121.144531 -113.90625 113.75 -115.46875 C 102.269531 -117.8125 93.867188 -118.984375 88.546875 -118.984375 C 83.222656 -118.984375 78.664062 -118.457031 74.875 -117.40625 C 71.082031 -116.351562 67.378906 -114.9375 63.765625 -113.15625 C 60.160156 -111.382812 56.75 -109.328125 53.53125 -106.984375 C 50.320312 -104.640625 47.515625 -102.144531 45.109375 -99.5 C 39.867188 -93.726562 37.25 -88.316406 37.25 -83.265625 C 37.25 -78.578125 39.359375 -75.359375 43.578125 -73.609375 C 44.953125 -73.066406 46.691406 -72.796875 48.796875 -72.796875 C 50.910156 -72.796875 53.300781 -73.441406 55.96875 -74.734375 C 58.644531 -76.023438 61.335938 -77.738281 64.046875 -79.875 C 66.753906 -82.007812 69.398438 -84.414062 71.984375 -87.09375 C 74.566406 -89.769531 76.914062 -92.492188 79.03125 -95.265625 C 83.59375 -101.335938 86.328125 -106.296875 87.234375 -110.140625 C 87.597656 -111.648438 87.957031 -112.40625 88.3125 -112.40625 Z M -9.65625 -18.3125 C -9.65625 -17.113281 -10.148438 -16.0625 -11.140625 -15.15625 C -12.128906 -14.25 -13.4375 -13.796875 -15.0625 -13.796875 C -16.6875 -13.796875 -18.007812 -14.097656 -19.03125 -14.703125 L -19.03125 -14.15625 C -19.03125 -8.382812 -14.910156 -4.6875 -6.671875 -3.0625 C -4.148438 -2.582031 -1.039062 -2.34375 2.65625 -2.34375 C 6.351562 -2.34375 10.609375 -3.171875 15.421875 -4.828125 C 20.234375 -6.484375 25.015625 -8.960938 29.765625 -12.265625 C 39.867188 -19.304688 49.101562 -29.410156 57.46875 -42.578125 C 60.113281 -46.722656 63.117188 -50.929688 66.484375 -55.203125 L 77.578125 -68.828125 C 86.960938 -79.648438 96.34375 -89.003906 105.71875 -96.890625 C 113.84375 -103.679688 119.019531 -107.078125 121.25 -107.078125 C 122.082031 -107.078125 122.5 -106.804688 122.5 -106.265625 C 122.5 -105.660156 121.65625 -104.816406 119.96875 -103.734375 C 118.289062 -102.660156 116.625 -101.519531 114.96875 -100.3125 C 113.3125 -99.113281 111.75 -97.820312 110.28125 -96.4375 C 108.8125 -95.050781 107.351562 -93.5 105.90625 -91.78125 C 104.457031 -90.070312 102.863281 -88.015625 101.125 -85.609375 C 99.382812 -83.203125 97.429688 -80.347656 95.265625 -77.046875 L 87.6875 -65.5 C 59.300781 -21.707031 30.3125 0.1875 0.71875 0.1875 C -5.71875 0.1875 -11.128906 -1.132812 -15.515625 -3.78125 C -20.265625 -6.675781 -22.640625 -10.378906 -22.640625 -14.890625 C -22.640625 -17.296875 -21.945312 -19.007812 -20.5625 -20.03125 C -18.519531 -21.65625 -16.71875 -22.46875 -15.15625 -22.46875 C -11.488281 -22.46875 -9.65625 -21.082031 -9.65625 -18.3125 Z M -9.65625 -18.3125 "/></g></g></g><g fill="#c19d47" fill-opacity="1"><g transform="translate(166.027169, 159.44495)"><g><path d="M 47.765625 -81.546875 C 46.890625 -80.765625 45.910156 -80.148438 44.828125 -79.703125 C 43.742188 -79.253906 42.507812 -79.03125 41.125 -79.03125 C 39.75 -79.03125 38.5625 -79.554688 37.5625 -80.609375 C 36.570312 -81.660156 36.078125 -82.847656 36.078125 -84.171875 C 36.078125 -85.492188 36.316406 -86.664062 36.796875 -87.6875 C 37.285156 -88.707031 37.953125 -89.609375 38.796875 -90.390625 C 40.535156 -92.191406 42.441406 -93.09375 44.515625 -93.09375 C 46.585938 -93.09375 48.117188 -92.535156 49.109375 -91.421875 C 50.109375 -90.316406 50.609375 -89.101562 50.609375 -87.78125 C 50.609375 -86.457031 50.351562 -85.28125 49.84375 -84.25 C 49.332031 -83.226562 48.640625 -82.328125 47.765625 -81.546875 Z M -9.5625 -5.1875 C -9.5625 -3.289062 -7.785156 -2.34375 -4.234375 -2.34375 C -0.691406 -2.34375 2.65625 -3.15625 5.8125 -4.78125 C 8.96875 -6.40625 12.15625 -8.4375 15.375 -10.875 C 18.59375 -13.3125 21.707031 -15.972656 24.71875 -18.859375 L 32.84375 -26.96875 C 35.238281 -29.5 37.21875 -31.679688 38.78125 -33.515625 C 40.351562 -35.347656 41.289062 -36.414062 41.59375 -36.71875 L 43.390625 -35.09375 C 42.785156 -34.488281 41.65625 -33.207031 40 -31.25 C 38.351562 -29.300781 36.296875 -27.019531 33.828125 -24.40625 C 31.359375 -21.789062 28.585938 -19.035156 25.515625 -16.140625 C 22.453125 -13.253906 19.238281 -10.609375 15.875 -8.203125 C 8.113281 -2.609375 1.316406 0.1875 -4.515625 0.1875 C -8.242188 0.1875 -11.21875 -0.488281 -13.4375 -1.84375 C -15.664062 -3.195312 -16.78125 -4.742188 -16.78125 -6.484375 C -16.78125 -8.234375 -16.597656 -9.800781 -16.234375 -11.1875 C -15.878906 -12.570312 -15.21875 -14.222656 -14.25 -16.140625 C -13.289062 -18.066406 -11.953125 -20.320312 -10.234375 -22.90625 C -8.523438 -25.5 -6.300781 -28.597656 -3.5625 -32.203125 C -0.820312 -35.816406 2.5 -40 6.40625 -44.75 L 20.296875 -61.15625 C 21.015625 -60.976562 22.488281 -60.890625 24.71875 -60.890625 L 28.953125 -60.890625 C 30.515625 -60.890625 31.78125 -60.953125 32.75 -61.078125 C 12.84375 -37.316406 1.644531 -23.796875 -0.84375 -20.515625 C -3.34375 -17.242188 -5.195312 -14.675781 -6.40625 -12.8125 C -8.507812 -9.625 -9.5625 -7.082031 -9.5625 -5.1875 Z M -9.5625 -5.1875 "/></g></g></g><g fill="#c19d47" fill-opacity="1"><g transform="translate(206.337978, 159.44495)"><g><path d="M 3.15625 -1.71875 C 1.769531 -2.019531 0.0234375 -2.171875 -2.078125 -2.171875 C -5.742188 -2.171875 -8.566406 -1.867188 -10.546875 -1.265625 L 20.75 -46 C 24.65625 -51.476562 26.671875 -54.726562 26.796875 -55.75 C 27.035156 -57.738281 26.398438 -58.734375 24.890625 -58.734375 C 22.671875 -58.734375 17.140625 -53.226562 8.296875 -42.21875 L 2.53125 -35.09375 C 2.039062 -34.851562 1.539062 -34.988281 1.03125 -35.5 C 0.519531 -36.007812 0.382812 -36.382812 0.625 -36.625 C 2.375 -38.488281 4.34375 -40.847656 6.53125 -43.703125 C 8.726562 -46.554688 11.03125 -49.3125 13.4375 -51.96875 C 19.332031 -58.519531 24.234375 -61.796875 28.140625 -61.796875 C 34.753906 -61.796875 36.859375 -58.394531 34.453125 -51.59375 C 33.972656 -50.15625 32.921875 -48.289062 31.296875 -46 L 12.359375 -19.671875 L 12.8125 -18.671875 C 28.988281 -37.378906 40.863281 -49.46875 48.4375 -54.9375 C 54.457031 -59.507812 60.019531 -61.796875 65.125 -61.796875 C 68.613281 -61.796875 71.382812 -60.832031 73.4375 -58.90625 C 75.050781 -57.28125 75.8125 -55.566406 75.71875 -53.765625 C 75.632812 -51.960938 75.515625 -50.59375 75.359375 -49.65625 C 75.210938 -48.726562 74.988281 -47.78125 74.6875 -46.8125 C 73.96875 -44.832031 72.707031 -42.429688 70.90625 -39.609375 C 83.769531 -52.710938 93.515625 -59.957031 100.140625 -61.34375 C 101.460938 -61.644531 102.921875 -61.796875 104.515625 -61.796875 C 106.109375 -61.796875 107.578125 -61.523438 108.921875 -60.984375 C 110.273438 -60.441406 111.375 -59.75 112.21875 -58.90625 C 113.78125 -57.34375 114.546875 -55.460938 114.515625 -53.265625 C 114.484375 -51.066406 114.0625 -48.828125 113.25 -46.546875 C 112.445312 -44.265625 111.082031 -41.554688 109.15625 -38.421875 C 105.125 -31.992188 98.328125 -23.609375 88.765625 -13.265625 C 84.796875 -9.109375 82.71875 -6.6875 82.53125 -6 C 82.351562 -5.3125 82.265625 -4.785156 82.265625 -4.421875 L 81.640625 -4.328125 C 81.640625 -2.890625 83.351562 -2.171875 86.78125 -2.171875 C 90.207031 -2.171875 93.347656 -2.9375 96.203125 -4.46875 C 99.066406 -6 101.96875 -7.953125 104.90625 -10.328125 C 107.851562 -12.703125 110.722656 -15.300781 113.515625 -18.125 C 116.316406 -20.957031 118.863281 -23.632812 121.15625 -26.15625 L 126.921875 -32.84375 C 128.484375 -34.757812 129.535156 -36.019531 130.078125 -36.625 L 131.984375 -35.09375 C 131.378906 -34.488281 130.25 -33.175781 128.59375 -31.15625 C 126.9375 -29.144531 124.921875 -26.816406 122.546875 -24.171875 C 120.171875 -21.523438 117.507812 -18.757812 114.5625 -15.875 C 111.613281 -12.988281 108.578125 -10.34375 105.453125 -7.9375 C 98.179688 -2.34375 92.078125 0.453125 87.140625 0.453125 C 81.910156 0.453125 78.210938 -0.929688 76.046875 -3.703125 C 75.390625 -4.546875 75.0625 -5.535156 75.0625 -6.671875 C 75.0625 -7.816406 75.253906 -9.140625 75.640625 -10.640625 C 76.035156 -12.148438 76.921875 -14.046875 78.296875 -16.328125 C 81.066406 -21.015625 85.097656 -26.332031 90.390625 -32.28125 C 95.679688 -38.238281 99.125 -42.238281 100.71875 -44.28125 C 102.3125 -46.332031 103.617188 -48.109375 104.640625 -49.609375 C 106.503906 -52.554688 107.4375 -54.785156 107.4375 -56.296875 C 107.4375 -58.453125 105.90625 -59.53125 102.84375 -59.53125 C 96.820312 -59.53125 86.414062 -52.015625 71.625 -36.984375 C 65.3125 -30.609375 58.273438 -22.519531 50.515625 -12.71875 L 42.125 -1.71875 C 40.738281 -2.019531 38.992188 -2.171875 36.890625 -2.171875 C 33.460938 -2.171875 30.640625 -1.867188 28.421875 -1.265625 C 37.316406 -12.148438 42.21875 -18.164062 43.125 -19.3125 C 56.65625 -37.164062 64.140625 -47.265625 65.578125 -49.609375 C 67.566406 -53.035156 68.5625 -55.410156 68.5625 -56.734375 C 68.5625 -58.597656 67.085938 -59.53125 64.140625 -59.53125 C 60.234375 -59.53125 55.660156 -57.425781 50.421875 -53.21875 C 39.421875 -44.4375 26.460938 -30.9375 11.546875 -12.71875 Z M 3.15625 -1.71875 "/></g></g></g><g fill="#c19d47" fill-opacity="1"><g transform="translate(335.234883, 159.44495)"><g><path d="M 34.859375 -7.796875 C 31.046875 -5.367188 26.925781 -3.367188 22.5 -1.796875 C 18.082031 -0.234375 13.890625 0.546875 9.921875 0.546875 C 5.953125 0.546875 2.929688 0.140625 0.859375 -0.671875 C -1.210938 -1.484375 -2.910156 -2.613281 -4.234375 -4.0625 C -9.890625 -10.195312 -9.863281 -19.25 -4.15625 -31.21875 C -1.6875 -36.507812 2.039062 -41.332031 7.03125 -45.6875 C 12.03125 -50.050781 16.421875 -53.316406 20.203125 -55.484375 C 27.546875 -59.691406 34.429688 -61.796875 40.859375 -61.796875 C 47.234375 -61.796875 50.570312 -59.8125 50.875 -55.84375 C 51.300781 -49.40625 43.484375 -42.398438 27.421875 -34.828125 C 21.523438 -32.054688 14.097656 -29.195312 5.140625 -26.25 C 1.585938 -20.476562 -0.1875 -15.769531 -0.1875 -12.125 C -0.1875 -8.488281 0.757812 -5.90625 2.65625 -4.375 C 4.550781 -2.84375 7.316406 -2.078125 10.953125 -2.078125 C 14.597656 -2.078125 18.539062 -2.859375 22.78125 -4.421875 C 27.019531 -5.984375 30.988281 -7.96875 34.6875 -10.375 C 38.382812 -12.78125 41.734375 -15.394531 44.734375 -18.21875 C 47.742188 -21.050781 50.40625 -23.757812 52.71875 -26.34375 C 55.039062 -28.925781 56.9375 -31.164062 58.40625 -33.0625 C 59.882812 -34.957031 60.894531 -36.144531 61.4375 -36.625 L 63.328125 -35.09375 C 62.546875 -34.425781 61.359375 -33.070312 59.765625 -31.03125 C 58.171875 -28.988281 56.15625 -26.65625 53.71875 -24.03125 C 51.28125 -21.414062 48.484375 -18.664062 45.328125 -15.78125 C 42.171875 -12.894531 38.679688 -10.234375 34.859375 -7.796875 Z M 7.21875 -29.40625 C 25.375 -35.78125 37.070312 -42.125 42.3125 -48.4375 C 44.050781 -50.539062 44.921875 -52.585938 44.921875 -54.578125 C 44.921875 -57.941406 43.359375 -59.625 40.234375 -59.625 C 34.703125 -59.625 27.785156 -54.785156 19.484375 -45.109375 C 13.710938 -38.367188 9.625 -33.132812 7.21875 -29.40625 Z M 7.21875 -29.40625 "/></g></g></g><g fill="#c19d47" fill-opacity="1"><g transform="translate(395.482085, 159.44495)"><g/></g></g><g fill="#c19d47" fill-opacity="1"><g transform="translate(458.345336, 159.44495)"><g><path d="M 27.78125 -16.59375 C 28.507812 -16.476562 29.425781 -16.421875 30.53125 -16.421875 C 31.644531 -16.421875 32.984375 -16.835938 34.546875 -17.671875 C 36.109375 -18.515625 37.71875 -19.597656 39.375 -20.921875 C 41.03125 -22.242188 42.671875 -23.703125 44.296875 -25.296875 C 45.921875 -26.890625 47.40625 -28.421875 48.75 -29.890625 C 50.101562 -31.367188 51.296875 -32.710938 52.328125 -33.921875 L 54.390625 -36.625 L 56.375 -35.09375 C 55.65625 -34.375 54.722656 -33.378906 53.578125 -32.109375 L 49.796875 -27.78125 C 41.429688 -18.757812 34.816406 -14.25 29.953125 -14.25 L 28.421875 -14.25 C 27.929688 -14.25 27.445312 -14.3125 26.96875 -14.4375 C 21.914062 -3.425781 11.179688 2.078125 -5.234375 2.078125 C -12.390625 2.078125 -17.59375 0.363281 -20.84375 -3.0625 C -22.21875 -4.570312 -22.90625 -6.5 -22.90625 -8.84375 C -22.90625 -11.1875 -22.347656 -13.1875 -21.234375 -14.84375 C -20.128906 -16.5 -18.828125 -17.863281 -17.328125 -18.9375 C -14.253906 -21.164062 -11.5 -22.28125 -9.0625 -22.28125 C -6.625 -22.28125 -5.40625 -21.140625 -5.40625 -18.859375 C -5.59375 -17.296875 -6.914062 -16.117188 -9.375 -15.328125 C -10.15625 -15.085938 -10.921875 -14.96875 -11.671875 -14.96875 C -12.429688 -14.96875 -13.15625 -15.222656 -13.84375 -15.734375 C -14.539062 -16.253906 -15.097656 -16.632812 -15.515625 -16.875 C -15.878906 -16.507812 -16.34375 -16.085938 -16.90625 -15.609375 C -17.476562 -15.128906 -18.035156 -14.554688 -18.578125 -13.890625 C -19.898438 -12.265625 -20.5625 -10.59375 -20.5625 -8.875 C -20.5625 -7.164062 -19.988281 -5.800781 -18.84375 -4.78125 C -17.707031 -3.757812 -16.359375 -2.976562 -14.796875 -2.4375 C -12.453125 -1.59375 -10 -1.171875 -7.4375 -1.171875 C -4.882812 -1.171875 -2.242188 -1.710938 0.484375 -2.796875 C 3.222656 -3.878906 5.914062 -5.679688 8.5625 -8.203125 C 15.84375 -15.117188 19.785156 -25.375 20.390625 -38.96875 C 20.742188 -48.113281 21.851562 -55.269531 23.71875 -60.4375 C 23.78125 -60.625 23.8125 -60.894531 23.8125 -61.25 L 2.53125 -35.09375 C 1.320312 -33.644531 0.429688 -32.707031 -0.140625 -32.28125 C -0.710938 -31.863281 -1 -31.65625 -1 -31.65625 C -1.71875 -31.601562 -2.195312 -31.785156 -2.4375 -32.203125 C -2.550781 -32.503906 -2.28125 -33.078125 -1.625 -33.921875 C 13.894531 -52.441406 22.613281 -62.96875 24.53125 -65.5 C 25.5 -70.1875 27.066406 -72.53125 29.234375 -72.53125 C 30.253906 -72.53125 31.109375 -72.257812 31.796875 -71.71875 C 32.492188 -71.175781 32.84375 -70.484375 32.84375 -69.640625 C 32.78125 -68.492188 31.859375 -66.882812 30.078125 -64.8125 C 28.304688 -62.738281 27.222656 -61.414062 26.828125 -60.84375 C 26.441406 -60.269531 26.1875 -59.785156 26.0625 -59.390625 C 25.945312 -59.003906 25.890625 -58.632812 25.890625 -58.28125 L 25.890625 -57.1875 C 25.828125 -55.5625 25.976562 -53.640625 26.34375 -51.421875 L 28.59375 -36.4375 C 29.914062 -28.257812 29.644531 -21.644531 27.78125 -16.59375 Z M 27.78125 -16.59375 "/></g></g></g></g></g><g transform="matrix(1, 0, 0, 1, 448, 289)"><g clip-path="url(#d5ec3ff341)"><g clip-path="url(#ff78c577d6)"><g fill="#dad4be" fill-opacity="1"><g transform="translate(0.844995, 159.918368)"><g/></g></g></g><g fill="#dad4be" fill-opacity="1"><g transform="translate(63.716795, 159.918368)"><g><path d="M 88.3125 -112.40625 C 88.976562 -112.40625 89.3125 -111.1875 89.3125 -108.75 C 89.3125 -106.3125 88.722656 -103.453125 87.546875 -100.171875 C 86.378906 -96.898438 84.800781 -93.773438 82.8125 -90.796875 C 80.820312 -87.816406 78.503906 -85.046875 75.859375 -82.484375 C 73.210938 -79.929688 70.421875 -77.722656 67.484375 -75.859375 C 61.109375 -71.890625 55.332031 -69.90625 50.15625 -69.90625 C 44.988281 -69.90625 41.125 -71.164062 38.5625 -73.6875 C 36.007812 -76.21875 34.734375 -79.300781 34.734375 -82.9375 C 34.734375 -86.582031 35.707031 -90.148438 37.65625 -93.640625 C 39.613281 -97.128906 42.335938 -100.554688 45.828125 -103.921875 C 53.703125 -111.316406 63.175781 -116.878906 74.25 -120.609375 C 82.726562 -123.429688 93.734375 -124.84375 107.265625 -124.84375 C 115.859375 -124.84375 124.15625 -123.972656 132.15625 -122.234375 C 138.894531 -121.035156 144.578125 -120.4375 149.203125 -120.4375 C 153.835938 -120.4375 157.820312 -120.867188 161.15625 -121.734375 C 164.5 -122.609375 167.613281 -123.769531 170.5 -125.21875 C 176.632812 -128.34375 181.023438 -131.976562 183.671875 -136.125 C 184.265625 -137.144531 184.863281 -137.65625 185.46875 -137.65625 C 186.070312 -137.65625 186.375 -137.296875 186.375 -136.578125 C 186.375 -135.859375 185.304688 -134.203125 183.171875 -131.609375 C 181.035156 -129.023438 178.207031 -126.585938 174.6875 -124.296875 C 171.175781 -122.015625 167.253906 -120.035156 162.921875 -118.359375 C 153.773438 -114.867188 144.210938 -113.125 134.234375 -113.125 C 127.972656 -113.125 121.144531 -113.90625 113.75 -115.46875 C 102.269531 -117.8125 93.867188 -118.984375 88.546875 -118.984375 C 83.222656 -118.984375 78.664062 -118.457031 74.875 -117.40625 C 71.082031 -116.351562 67.378906 -114.9375 63.765625 -113.15625 C 60.160156 -111.382812 56.75 -109.328125 53.53125 -106.984375 C 50.320312 -104.640625 47.515625 -102.144531 45.109375 -99.5 C 39.867188 -93.726562 37.25 -88.316406 37.25 -83.265625 C 37.25 -78.578125 39.359375 -75.359375 43.578125 -73.609375 C 44.953125 -73.066406 46.691406 -72.796875 48.796875 -72.796875 C 50.910156 -72.796875 53.300781 -73.441406 55.96875 -74.734375 C 58.644531 -76.023438 61.335938 -77.738281 64.046875 -79.875 C 66.753906 -82.007812 69.398438 -84.414062 71.984375 -87.09375 C 74.566406 -89.769531 76.914062 -92.492188 79.03125 -95.265625 C 83.59375 -101.335938 86.328125 -106.296875 87.234375 -110.140625 C 87.597656 -111.648438 87.957031 -112.40625 88.3125 -112.40625 Z M -9.65625 -18.3125 C -9.65625 -17.113281 -10.148438 -16.0625 -11.140625 -15.15625 C -12.128906 -14.25 -13.4375 -13.796875 -15.0625 -13.796875 C -16.6875 -13.796875 -18.007812 -14.097656 -19.03125 -14.703125 L -19.03125 -14.15625 C -19.03125 -8.382812 -14.910156 -4.6875 -6.671875 -3.0625 C -4.148438 -2.582031 -1.039062 -2.34375 2.65625 -2.34375 C 6.351562 -2.34375 10.609375 -3.171875 15.421875 -4.828125 C 20.234375 -6.484375 25.015625 -8.960938 29.765625 -12.265625 C 39.867188 -19.304688 49.101562 -29.410156 57.46875 -42.578125 C 60.113281 -46.722656 63.117188 -50.929688 66.484375 -55.203125 L 77.578125 -68.828125 C 86.960938 -79.648438 96.34375 -89.003906 105.71875 -96.890625 C 113.84375 -103.679688 119.019531 -107.078125 121.25 -107.078125 C 122.082031 -107.078125 122.5 -106.804688 122.5 -106.265625 C 122.5 -105.660156 121.65625 -104.816406 119.96875 -103.734375 C 118.289062 -102.660156 116.625 -101.519531 114.96875 -100.3125 C 113.3125 -99.113281 111.75 -97.820312 110.28125 -96.4375 C 108.8125 -95.050781 107.351562 -93.5 105.90625 -91.78125 C 104.457031 -90.070312 102.863281 -88.015625 101.125 -85.609375 C 99.382812 -83.203125 97.429688 -80.347656 95.265625 -77.046875 L 87.6875 -65.5 C 59.300781 -21.707031 30.3125 0.1875 0.71875 0.1875 C -5.71875 0.1875 -11.128906 -1.132812 -15.515625 -3.78125 C -20.265625 -6.675781 -22.640625 -10.378906 -22.640625 -14.890625 C -22.640625 -17.296875 -21.945312 -19.007812 -20.5625 -20.03125 C -18.519531 -21.65625 -16.71875 -22.46875 -15.15625 -22.46875 C -11.488281 -22.46875 -9.65625 -21.082031 -9.65625 -18.3125 Z M -9.65625 -18.3125 "/></g></g></g><g fill="#dad4be" fill-opacity="1"><g transform="translate(166.455182, 159.918368)"><g><path d="M 47.765625 -81.546875 C 46.890625 -80.765625 45.910156 -80.148438 44.828125 -79.703125 C 43.742188 -79.253906 42.507812 -79.03125 41.125 -79.03125 C 39.75 -79.03125 38.5625 -79.554688 37.5625 -80.609375 C 36.570312 -81.660156 36.078125 -82.847656 36.078125 -84.171875 C 36.078125 -85.492188 36.316406 -86.664062 36.796875 -87.6875 C 37.285156 -88.707031 37.953125 -89.609375 38.796875 -90.390625 C 40.535156 -92.191406 42.441406 -93.09375 44.515625 -93.09375 C 46.585938 -93.09375 48.117188 -92.535156 49.109375 -91.421875 C 50.109375 -90.316406 50.609375 -89.101562 50.609375 -87.78125 C 50.609375 -86.457031 50.351562 -85.28125 49.84375 -84.25 C 49.332031 -83.226562 48.640625 -82.328125 47.765625 -81.546875 Z M -9.5625 -5.1875 C -9.5625 -3.289062 -7.785156 -2.34375 -4.234375 -2.34375 C -0.691406 -2.34375 2.65625 -3.15625 5.8125 -4.78125 C 8.96875 -6.40625 12.15625 -8.4375 15.375 -10.875 C 18.59375 -13.3125 21.707031 -15.972656 24.71875 -18.859375 L 32.84375 -26.96875 C 35.238281 -29.5 37.21875 -31.679688 38.78125 -33.515625 C 40.351562 -35.347656 41.289062 -36.414062 41.59375 -36.71875 L 43.390625 -35.09375 C 42.785156 -34.488281 41.65625 -33.207031 40 -31.25 C 38.351562 -29.300781 36.296875 -27.019531 33.828125 -24.40625 C 31.359375 -21.789062 28.585938 -19.035156 25.515625 -16.140625 C 22.453125 -13.253906 19.238281 -10.609375 15.875 -8.203125 C 8.113281 -2.609375 1.316406 0.1875 -4.515625 0.1875 C -8.242188 0.1875 -11.21875 -0.488281 -13.4375 -1.84375 C -15.664062 -3.195312 -16.78125 -4.742188 -16.78125 -6.484375 C -16.78125 -8.234375 -16.597656 -9.800781 -16.234375 -11.1875 C -15.878906 -12.570312 -15.21875 -14.222656 -14.25 -16.140625 C -13.289062 -18.066406 -11.953125 -20.320312 -10.234375 -22.90625 C -8.523438 -25.5 -6.300781 -28.597656 -3.5625 -32.203125 C -0.820312 -35.816406 2.5 -40 6.40625 -44.75 L 20.296875 -61.15625 C 21.015625 -60.976562 22.488281 -60.890625 24.71875 -60.890625 L 28.953125 -60.890625 C 30.515625 -60.890625 31.78125 -60.953125 32.75 -61.078125 C 12.84375 -37.316406 1.644531 -23.796875 -0.84375 -20.515625 C -3.34375 -17.242188 -5.195312 -14.675781 -6.40625 -12.8125 C -8.507812 -9.625 -9.5625 -7.082031 -9.5625 -5.1875 Z M -9.5625 -5.1875 "/></g></g></g><g fill="#dad4be" fill-opacity="1"><g transform="translate(206.766923, 159.918368)"><g><path d="M 3.15625 -1.71875 C 1.769531 -2.019531 0.0234375 -2.171875 -2.078125 -2.171875 C -5.742188 -2.171875 -8.566406 -1.867188 -10.546875 -1.265625 L 20.75 -46 C 24.65625 -51.476562 26.671875 -54.726562 26.796875 -55.75 C 27.035156 -57.738281 26.398438 -58.734375 24.890625 -58.734375 C 22.671875 -58.734375 17.140625 -53.226562 8.296875 -42.21875 L 2.53125 -35.09375 C 2.039062 -34.851562 1.539062 -34.988281 1.03125 -35.5 C 0.519531 -36.007812 0.382812 -36.382812 0.625 -36.625 C 2.375 -38.488281 4.34375 -40.847656 6.53125 -43.703125 C 8.726562 -46.554688 11.03125 -49.3125 13.4375 -51.96875 C 19.332031 -58.519531 24.234375 -61.796875 28.140625 -61.796875 C 34.753906 -61.796875 36.859375 -58.394531 34.453125 -51.59375 C 33.972656 -50.15625 32.921875 -48.289062 31.296875 -46 L 12.359375 -19.671875 L 12.8125 -18.671875 C 28.988281 -37.378906 40.863281 -49.46875 48.4375 -54.9375 C 54.457031 -59.507812 60.019531 -61.796875 65.125 -61.796875 C 68.613281 -61.796875 71.382812 -60.832031 73.4375 -58.90625 C 75.050781 -57.28125 75.8125 -55.566406 75.71875 -53.765625 C 75.632812 -51.960938 75.515625 -50.59375 75.359375 -49.65625 C 75.210938 -48.726562 74.988281 -47.78125 74.6875 -46.8125 C 73.96875 -44.832031 72.707031 -42.429688 70.90625 -39.609375 C 83.769531 -52.710938 93.515625 -59.957031 100.140625 -61.34375 C 101.460938 -61.644531 102.921875 -61.796875 104.515625 -61.796875 C 106.109375 -61.796875 107.578125 -61.523438 108.921875 -60.984375 C 110.273438 -60.441406 111.375 -59.75 112.21875 -58.90625 C 113.78125 -57.34375 114.546875 -55.460938 114.515625 -53.265625 C 114.484375 -51.066406 114.0625 -48.828125 113.25 -46.546875 C 112.445312 -44.265625 111.082031 -41.554688 109.15625 -38.421875 C 105.125 -31.992188 98.328125 -23.609375 88.765625 -13.265625 C 84.796875 -9.109375 82.71875 -6.6875 82.53125 -6 C 82.351562 -5.3125 82.265625 -4.785156 82.265625 -4.421875 L 81.640625 -4.328125 C 81.640625 -2.890625 83.351562 -2.171875 86.78125 -2.171875 C 90.207031 -2.171875 93.347656 -2.9375 96.203125 -4.46875 C 99.066406 -6 101.96875 -7.953125 104.90625 -10.328125 C 107.851562 -12.703125 110.722656 -15.300781 113.515625 -18.125 C 116.316406 -20.957031 118.863281 -23.632812 121.15625 -26.15625 L 126.921875 -32.84375 C 128.484375 -34.757812 129.535156 -36.019531 130.078125 -36.625 L 131.984375 -35.09375 C 131.378906 -34.488281 130.25 -33.175781 128.59375 -31.15625 C 126.9375 -29.144531 124.921875 -26.816406 122.546875 -24.171875 C 120.171875 -21.523438 117.507812 -18.757812 114.5625 -15.875 C 111.613281 -12.988281 108.578125 -10.34375 105.453125 -7.9375 C 98.179688 -2.34375 92.078125 0.453125 87.140625 0.453125 C 81.910156 0.453125 78.210938 -0.929688 76.046875 -3.703125 C 75.390625 -4.546875 75.0625 -5.535156 75.0625 -6.671875 C 75.0625 -7.816406 75.253906 -9.140625 75.640625 -10.640625 C 76.035156 -12.148438 76.921875 -14.046875 78.296875 -16.328125 C 81.066406 -21.015625 85.097656 -26.332031 90.390625 -32.28125 C 95.679688 -38.238281 99.125 -42.238281 100.71875 -44.28125 C 102.3125 -46.332031 103.617188 -48.109375 104.640625 -49.609375 C 106.503906 -52.554688 107.4375 -54.785156 107.4375 -56.296875 C 107.4375 -58.453125 105.90625 -59.53125 102.84375 -59.53125 C 96.820312 -59.53125 86.414062 -52.015625 71.625 -36.984375 C 65.3125 -30.609375 58.273438 -22.519531 50.515625 -12.71875 L 42.125 -1.71875 C 40.738281 -2.019531 38.992188 -2.171875 36.890625 -2.171875 C 33.460938 -2.171875 30.640625 -1.867188 28.421875 -1.265625 C 37.316406 -12.148438 42.21875 -18.164062 43.125 -19.3125 C 56.65625 -37.164062 64.140625 -47.265625 65.578125 -49.609375 C 67.566406 -53.035156 68.5625 -55.410156 68.5625 -56.734375 C 68.5625 -58.597656 67.085938 -59.53125 64.140625 -59.53125 C 60.234375 -59.53125 55.660156 -57.425781 50.421875 -53.21875 C 39.421875 -44.4375 26.460938 -30.9375 11.546875 -12.71875 Z M 3.15625 -1.71875 "/></g></g></g><g fill="#dad4be" fill-opacity="1"><g transform="translate(335.666759, 159.918368)"><g><path d="M 34.859375 -7.796875 C 31.046875 -5.367188 26.925781 -3.367188 22.5 -1.796875 C 18.082031 -0.234375 13.890625 0.546875 9.921875 0.546875 C 5.953125 0.546875 2.929688 0.140625 0.859375 -0.671875 C -1.210938 -1.484375 -2.910156 -2.613281 -4.234375 -4.0625 C -9.890625 -10.195312 -9.863281 -19.25 -4.15625 -31.21875 C -1.6875 -36.507812 2.039062 -41.332031 7.03125 -45.6875 C 12.03125 -50.050781 16.421875 -53.316406 20.203125 -55.484375 C 27.546875 -59.691406 34.429688 -61.796875 40.859375 -61.796875 C 47.234375 -61.796875 50.570312 -59.8125 50.875 -55.84375 C 51.300781 -49.40625 43.484375 -42.398438 27.421875 -34.828125 C 21.523438 -32.054688 14.097656 -29.195312 5.140625 -26.25 C 1.585938 -20.476562 -0.1875 -15.769531 -0.1875 -12.125 C -0.1875 -8.488281 0.757812 -5.90625 2.65625 -4.375 C 4.550781 -2.84375 7.316406 -2.078125 10.953125 -2.078125 C 14.597656 -2.078125 18.539062 -2.859375 22.78125 -4.421875 C 27.019531 -5.984375 30.988281 -7.96875 34.6875 -10.375 C 38.382812 -12.78125 41.734375 -15.394531 44.734375 -18.21875 C 47.742188 -21.050781 50.40625 -23.757812 52.71875 -26.34375 C 55.039062 -28.925781 56.9375 -31.164062 58.40625 -33.0625 C 59.882812 -34.957031 60.894531 -36.144531 61.4375 -36.625 L 63.328125 -35.09375 C 62.546875 -34.425781 61.359375 -33.070312 59.765625 -31.03125 C 58.171875 -28.988281 56.15625 -26.65625 53.71875 -24.03125 C 51.28125 -21.414062 48.484375 -18.664062 45.328125 -15.78125 C 42.171875 -12.894531 38.679688 -10.234375 34.859375 -7.796875 Z M 7.21875 -29.40625 C 25.375 -35.78125 37.070312 -42.125 42.3125 -48.4375 C 44.050781 -50.539062 44.921875 -52.585938 44.921875 -54.578125 C 44.921875 -57.941406 43.359375 -59.625 40.234375 -59.625 C 34.703125 -59.625 27.785156 -54.785156 19.484375 -45.109375 C 13.710938 -38.367188 9.625 -33.132812 7.21875 -29.40625 Z M 7.21875 -29.40625 "/></g></g></g></g></g><g fill="#c89116" fill-opacity="1"><g transform="translate(371.605565, 457.736716)"><g><path d="M 0 -137.265625 L 0 -138.65625 L 45.484375 -138.65625 L 45.484375 -137.265625 C 40.578125 -137.265625 36.851562 -136.617188 34.3125 -135.328125 C 31.769531 -134.035156 30.128906 -132.234375 29.390625 -129.921875 C 28.648438 -127.609375 28.554688 -124.925781 29.109375 -121.875 C 29.671875 -118.820312 30.597656 -115.539062 31.890625 -112.03125 L 69.328125 -13.3125 C 75.054688 -29.675781 81.015625 -46.035156 87.203125 -62.390625 C 93.398438 -78.753906 99.179688 -95.164062 104.546875 -111.625 C 105.472656 -114.394531 106.070312 -117.28125 106.34375 -120.28125 C 106.625 -123.289062 106.300781 -126.066406 105.375 -128.609375 C 104.445312 -131.148438 102.691406 -133.226562 100.109375 -134.84375 C 97.523438 -136.457031 93.78125 -137.265625 88.875 -137.265625 L 88.875 -138.65625 L 128.125 -138.65625 L 128.125 -137.265625 C 123.863281 -137.265625 120.367188 -135.367188 117.640625 -131.578125 C 114.921875 -127.796875 112.082031 -122.066406 109.125 -114.390625 L 64.75 2.765625 L 63.359375 2.765625 L 19 -114.390625 C 15.945312 -122.066406 13.078125 -127.796875 10.390625 -131.578125 C 7.710938 -135.367188 4.25 -137.265625 0 -137.265625 Z M 0 -137.265625 "/></g></g></g><g fill="#000000" fill-opacity="1"><g transform="translate(519.83603, 457.736716)"><g/></g></g><g clip-path="url(#146e7df774)"><g transform="matrix(1, 0, 0, 1, 74, 57)"><g clip-path="url(#4a81473fe2)"><g clip-path="url(#ed5f114076)"><g mask="url(#6d186e54f3)"><g transform="matrix(1, 0, 0, 1, 0, 0.000000000000042633)"><g clip-path="url(#4765fa6371)"><g clip-path="url(#ecd19ecdf5)"><path fill="url(#87d111f1cd)" d="M 120.863281 0.238281 L 120.863281 696.238281 L 723.113281 696.238281 L 723.113281 0.238281 Z M 120.863281 0.238281 " fill-rule="nonzero"/></g></g></g></g></g></g></g></g><g fill="#c19d47" fill-opacity="1"><g transform="translate(824.137177, 449.111717)"><g><path d="M 71.53125 -106 C 71.53125 -106.351562 71.679688 -106.863281 71.984375 -107.53125 L 84.4375 -130.4375 C 84.851562 -131.164062 85.210938 -131.828125 85.515625 -132.421875 L 86.6875 -134.859375 C 89.570312 -140.273438 91.828125 -143.703125 93.453125 -145.140625 C 95.859375 -147.191406 98.1875 -148.257812 100.4375 -148.34375 C 102.695312 -148.4375 104.128906 -148.132812 104.734375 -147.4375 C 105.335938 -146.75 105.640625 -145.925781 105.640625 -144.96875 C 105.640625 -144.007812 105.472656 -143.125 105.140625 -142.3125 C 104.804688 -141.5 104.097656 -140.382812 103.015625 -138.96875 C 101.929688 -137.550781 100.367188 -135.671875 98.328125 -133.328125 L 81.015625 -113.21875 C 76.140625 -107.738281 73.335938 -105 72.609375 -105 C 71.890625 -105 71.53125 -105.332031 71.53125 -106 Z M 71.53125 -106 "/></g></g></g><g fill="#dad4be" fill-opacity="1"><g transform="translate(815.380033, 448.638278)"><g><path d="M 71.53125 -106 C 71.53125 -106.351562 71.679688 -106.863281 71.984375 -107.53125 L 84.4375 -130.4375 C 84.851562 -131.164062 85.210938 -131.828125 85.515625 -132.421875 L 86.6875 -134.859375 C 89.570312 -140.273438 91.828125 -143.703125 93.453125 -145.140625 C 95.859375 -147.191406 98.1875 -148.257812 100.4375 -148.34375 C 102.695312 -148.4375 104.128906 -148.132812 104.734375 -147.4375 C 105.335938 -146.75 105.640625 -145.925781 105.640625 -144.96875 C 105.640625 -144.007812 105.472656 -143.125 105.140625 -142.3125 C 104.804688 -141.5 104.097656 -140.382812 103.015625 -138.96875 C 101.929688 -137.550781 100.367188 -135.671875 98.328125 -133.328125 L 81.015625 -113.21875 C 76.140625 -107.738281 73.335938 -105 72.609375 -105 C 71.890625 -105 71.53125 -105.332031 71.53125 -106 Z M 71.53125 -106 "/></g></g></g></svg>