<svg xmlns="http://www.w3.org/2000/svg" xmlns:xlink="http://www.w3.org/1999/xlink" width="1920" zoomAndPan="magnify" viewBox="0 0 1440 809.999993" height="1080" preserveAspectRatio="xMidYMid meet" version="1.0"><defs><filter x="0%" y="0%" width="100%" height="100%" id="511af969ec"><feColorMatrix values="0 0 0 0 1 0 0 0 0 1 0 0 0 0 1 0 0 0 1 0" color-interpolation-filters="sRGB"/></filter><g/><clipPath id="b8137d3178"><path d="M 99.914062 33.085938 L 1329.164062 33.085938 L 1329.164062 775.585938 L 99.914062 775.585938 Z M 99.914062 33.085938 " clip-rule="nonzero"/></clipPath><clipPath id="b23b1148f6"><path d="M 0.914062 0.0859375 L 1230.164062 0.0859375 L 1230.164062 742.585938 L 0.914062 742.585938 Z M 0.914062 0.0859375 " clip-rule="nonzero"/></clipPath><clipPath id="eaf3b754e8"><path d="M 174.164062 0.0859375 L 841.664062 0.0859375 L 841.664062 742.585938 L 174.164062 742.585938 Z M 174.164062 0.0859375 " clip-rule="nonzero"/></clipPath><linearGradient x1="-163.321997" gradientTransform="matrix(0.749707, 0, 0, 0.749878, 296.608873, 295.602483)" y1="101" x2="727.025993" gradientUnits="userSpaceOnUse" y2="101" id="99741ec258"><stop stop-opacity="1" stop-color="rgb(75.689697%, 61.569214%, 27.839661%)" offset="0"/><stop stop-opacity="1" stop-color="rgb(75.689697%, 61.569214%, 27.839661%)" offset="0.25"/><stop stop-opacity="1" stop-color="rgb(75.689697%, 61.569214%, 27.839661%)" offset="0.375"/><stop stop-opacity="1" stop-color="rgb(75.689697%, 61.569214%, 27.839661%)" offset="0.4375"/><stop stop-opacity="1" stop-color="rgb(75.050354%, 61.238098%, 27.853394%)" offset="0.441406"/><stop stop-opacity="1" stop-color="rgb(74.411011%, 60.906982%, 27.867126%)" offset="0.445312"/><stop stop-opacity="1" stop-color="rgb(72.555542%, 59.945679%, 27.906799%)" offset="0.449219"/><stop stop-opacity="1" stop-color="rgb(70.700073%, 58.984375%, 27.946472%)" offset="0.453125"/><stop stop-opacity="1" stop-color="rgb(68.844604%, 58.023071%, 27.986145%)" offset="0.457031"/><stop stop-opacity="1" stop-color="rgb(66.989136%, 57.061768%, 28.027344%)" offset="0.460938"/><stop stop-opacity="1" stop-color="rgb(65.133667%, 56.100464%, 28.067017%)" offset="0.464844"/><stop stop-opacity="1" stop-color="rgb(63.278198%, 55.13916%, 28.108215%)" offset="0.46875"/><stop stop-opacity="1" stop-color="rgb(61.422729%, 54.177856%, 28.147888%)" offset="0.472656"/><stop stop-opacity="1" stop-color="rgb(59.567261%, 53.216553%, 28.187561%)" offset="0.476562"/><stop stop-opacity="1" stop-color="rgb(57.711792%, 52.255249%, 28.227234%)" offset="0.480469"/><stop stop-opacity="1" stop-color="rgb(55.856323%, 51.293945%, 28.268433%)" offset="0.484375"/><stop stop-opacity="1" stop-color="rgb(54.000854%, 50.332642%, 28.308105%)" offset="0.488281"/><stop stop-opacity="1" stop-color="rgb(52.145386%, 49.371338%, 28.349304%)" offset="0.492188"/><stop stop-opacity="1" stop-color="rgb(50.289917%, 48.410034%, 28.388977%)" offset="0.496094"/><stop stop-opacity="1" stop-color="rgb(48.434448%, 47.44873%, 28.42865%)" offset="0.5"/><stop stop-opacity="1" stop-color="rgb(46.578979%, 46.487427%, 28.468323%)" offset="0.503906"/><stop stop-opacity="1" stop-color="rgb(44.723511%, 45.526123%, 28.509521%)" offset="0.507813"/><stop stop-opacity="1" stop-color="rgb(42.868042%, 44.564819%, 28.549194%)" offset="0.511719"/><stop stop-opacity="1" stop-color="rgb(41.012573%, 43.603516%, 28.590393%)" offset="0.515625"/><stop stop-opacity="1" stop-color="rgb(39.157104%, 42.642212%, 28.630066%)" offset="0.519531"/><stop stop-opacity="1" stop-color="rgb(37.301636%, 41.680908%, 28.669739%)" offset="0.523438"/><stop stop-opacity="1" stop-color="rgb(35.446167%, 40.719604%, 28.709412%)" offset="0.527344"/><stop stop-opacity="1" stop-color="rgb(33.590698%, 39.758301%, 28.75061%)" offset="0.53125"/><stop stop-opacity="1" stop-color="rgb(31.735229%, 38.796997%, 28.790283%)" offset="0.535156"/><stop stop-opacity="1" stop-color="rgb(29.879761%, 37.835693%, 28.831482%)" offset="0.539062"/><stop stop-opacity="1" stop-color="rgb(28.024292%, 36.87439%, 28.871155%)" offset="0.542969"/><stop stop-opacity="1" stop-color="rgb(26.168823%, 35.913086%, 28.910828%)" offset="0.546875"/><stop stop-opacity="1" stop-color="rgb(24.311829%, 34.951782%, 28.9505%)" offset="0.550781"/><stop stop-opacity="1" stop-color="rgb(22.45636%, 33.990479%, 28.991699%)" offset="0.554688"/><stop stop-opacity="1" stop-color="rgb(21.817017%, 33.659363%, 29.005432%)" offset="0.558594"/><stop stop-opacity="1" stop-color="rgb(21.179199%, 33.329773%, 29.019165%)" offset="0.5625"/><stop stop-opacity="1" stop-color="rgb(21.179199%, 33.329773%, 29.019165%)" offset="0.625"/><stop stop-opacity="1" stop-color="rgb(21.179199%, 33.329773%, 29.019165%)" offset="0.75"/><stop stop-opacity="1" stop-color="rgb(21.179199%, 33.329773%, 29.019165%)" offset="1"/></linearGradient><clipPath id="b169eca41e"><rect x="0" width="1231" y="0" height="743"/></clipPath><clipPath id="cea91a1779"><path d="M 0.914062 0.0859375 L 1230.164062 0.0859375 L 1230.164062 742.585938 L 0.914062 742.585938 Z M 0.914062 0.0859375 " clip-rule="nonzero"/></clipPath><clipPath id="2596193037"><rect x="0" width="1231" y="0" height="743"/></clipPath><clipPath id="a1e5eb1141"><rect x="0" width="1231" y="0" height="743"/></clipPath><mask id="e55a43f827"><g filter="url(#511af969ec)"><g transform="matrix(1, 0, 0, 1, 0, 0.000000000000035527)"><g clip-path="url(#a1e5eb1141)"><g clip-path="url(#cea91a1779)"><g transform="matrix(1, 0, 0, 1, 0, 0.000000000000035527)"><g clip-path="url(#2596193037)"><g fill="#000000" fill-opacity="1"><g transform="translate(469.489464, 406.587067)"><g><path d="M 23.53125 -33.265625 C 24.15625 -33.890625 24.597656 -34.632812 24.859375 -35.5 C 25.117188 -36.363281 25.367188 -36.988281 25.609375 -37.375 L 53.109375 -37.375 C 51.953125 -35.882812 51.28125 -34.515625 51.09375 -33.265625 Z M 23.53125 -33.265625 "/></g></g></g></g></g></g></g></g></g></mask><clipPath id="0e3b375d8b"><path d="M 174.164062 0.0859375 L 841.664062 0.0859375 L 841.664062 742.585938 L 174.164062 742.585938 Z M 174.164062 0.0859375 " clip-rule="nonzero"/></clipPath><clipPath id="c8a108b197"><rect x="0" width="1231" y="0" height="743"/></clipPath><clipPath id="b0de405f5f"><rect x="0" width="1231" y="0" height="743"/></clipPath></defs><g fill="#c19d47" fill-opacity="1"><g transform="translate(873.655738, 440.912928)"><g><path d="M 57.21875 -84.78125 C 57.21875 -85.070312 57.335938 -85.484375 57.578125 -86.015625 L 67.546875 -104.34375 C 67.878906 -104.914062 68.164062 -105.441406 68.40625 -105.921875 L 69.34375 -107.875 C 71.65625 -112.207031 73.457031 -114.953125 74.75 -116.109375 C 76.675781 -117.742188 78.539062 -118.59375 80.34375 -118.65625 C 82.15625 -118.726562 83.300781 -118.488281 83.78125 -117.9375 C 84.257812 -117.382812 84.5 -116.722656 84.5 -115.953125 C 84.5 -115.179688 84.363281 -114.472656 84.09375 -113.828125 C 83.832031 -113.179688 83.269531 -112.289062 82.40625 -111.15625 C 81.539062 -110.03125 80.289062 -108.53125 78.65625 -106.65625 L 64.796875 -90.5625 C 60.898438 -86.1875 58.660156 -84 58.078125 -84 C 57.503906 -84 57.21875 -84.257812 57.21875 -84.78125 Z M 57.21875 -84.78125 "/></g></g></g><g fill="#36554a" fill-opacity="1"><g transform="translate(950.565894, 440.912928)"><g><path d="M 22.21875 -13.28125 C 22.800781 -13.1875 23.535156 -13.140625 24.421875 -13.140625 C 25.316406 -13.140625 26.390625 -13.472656 27.640625 -14.140625 C 28.890625 -14.816406 30.175781 -15.679688 31.5 -16.734375 C 32.820312 -17.796875 34.128906 -18.960938 35.421875 -20.234375 C 36.722656 -21.515625 37.914062 -22.742188 39 -23.921875 C 40.082031 -25.097656 41.035156 -26.164062 41.859375 -27.125 L 43.515625 -29.296875 L 45.09375 -28.0625 C 44.519531 -27.488281 43.773438 -26.695312 42.859375 -25.6875 L 39.828125 -22.21875 C 33.140625 -15.007812 27.847656 -11.40625 23.953125 -11.40625 L 22.734375 -11.40625 C 22.347656 -11.40625 21.960938 -11.453125 21.578125 -11.546875 C 17.535156 -2.742188 8.945312 1.65625 -4.1875 1.65625 C -9.90625 1.65625 -14.066406 0.285156 -16.671875 -2.453125 C -17.773438 -3.648438 -18.328125 -5.1875 -18.328125 -7.0625 C -18.328125 -8.945312 -17.878906 -10.550781 -16.984375 -11.875 C -16.097656 -13.195312 -15.054688 -14.289062 -13.859375 -15.15625 C -11.398438 -16.9375 -9.195312 -17.828125 -7.25 -17.828125 C -5.300781 -17.828125 -4.328125 -16.910156 -4.328125 -15.078125 C -4.472656 -13.828125 -5.53125 -12.890625 -7.5 -12.265625 C -8.125 -12.078125 -8.738281 -11.984375 -9.34375 -11.984375 C -9.945312 -11.984375 -10.523438 -12.1875 -11.078125 -12.59375 C -11.628906 -13 -12.070312 -13.300781 -12.40625 -13.5 C -12.695312 -13.207031 -13.070312 -12.867188 -13.53125 -12.484375 C -13.988281 -12.097656 -14.429688 -11.640625 -14.859375 -11.109375 C -15.921875 -9.816406 -16.453125 -8.484375 -16.453125 -7.109375 C -16.453125 -5.734375 -15.992188 -4.632812 -15.078125 -3.8125 C -14.160156 -3 -13.078125 -2.378906 -11.828125 -1.953125 C -9.953125 -1.273438 -7.992188 -0.9375 -5.953125 -0.9375 C -3.910156 -0.9375 -1.796875 -1.367188 0.390625 -2.234375 C 2.585938 -3.097656 4.742188 -4.539062 6.859375 -6.5625 C 12.679688 -12.09375 15.832031 -20.296875 16.3125 -31.171875 C 16.59375 -38.484375 17.484375 -44.207031 18.984375 -48.34375 C 19.023438 -48.488281 19.046875 -48.707031 19.046875 -49 L 2.015625 -28.0625 C 1.054688 -26.914062 0.347656 -26.171875 -0.109375 -25.828125 C -0.566406 -25.492188 -0.796875 -25.328125 -0.796875 -25.328125 C -1.367188 -25.273438 -1.753906 -25.421875 -1.953125 -25.765625 C -2.046875 -26.003906 -1.828125 -26.457031 -1.296875 -27.125 C 11.109375 -41.945312 18.082031 -50.367188 19.625 -52.390625 C 20.394531 -56.140625 21.644531 -58.015625 23.375 -58.015625 C 24.195312 -58.015625 24.882812 -57.796875 25.4375 -57.359375 C 25.988281 -56.929688 26.265625 -56.378906 26.265625 -55.703125 C 26.210938 -54.785156 25.476562 -53.5 24.0625 -51.84375 C 22.644531 -50.1875 21.78125 -49.128906 21.46875 -48.671875 C 21.15625 -48.210938 20.945312 -47.828125 20.84375 -47.515625 C 20.75 -47.203125 20.703125 -46.898438 20.703125 -46.609375 L 20.703125 -45.75 C 20.660156 -44.445312 20.785156 -42.90625 21.078125 -41.125 L 22.875 -29.15625 C 23.9375 -22.613281 23.71875 -17.320312 22.21875 -13.28125 Z M 22.21875 -13.28125 "/></g></g></g><g fill="#c89116" fill-opacity="1"><g transform="translate(503.479493, 442.799177)"><g><path d="M 0 -111.125 L 0 -112.25 L 36.8125 -112.25 L 36.8125 -111.125 C 32.851562 -111.125 29.84375 -110.597656 27.78125 -109.546875 C 25.71875 -108.503906 24.390625 -107.046875 23.796875 -105.171875 C 23.203125 -103.304688 23.128906 -101.140625 23.578125 -98.671875 C 24.023438 -96.203125 24.769531 -93.546875 25.8125 -90.703125 L 56.125 -10.78125 C 60.757812 -24.019531 65.582031 -37.257812 70.59375 -50.5 C 75.613281 -63.75 80.296875 -77.035156 84.640625 -90.359375 C 85.390625 -92.609375 85.875 -94.945312 86.09375 -97.375 C 86.320312 -99.8125 86.0625 -102.054688 85.3125 -104.109375 C 84.5625 -106.171875 83.140625 -107.851562 81.046875 -109.15625 C 78.953125 -110.46875 75.921875 -111.125 71.953125 -111.125 L 71.953125 -112.25 L 103.71875 -112.25 L 103.71875 -111.125 C 100.28125 -111.125 97.457031 -109.585938 95.25 -106.515625 C 93.039062 -103.453125 90.738281 -98.816406 88.34375 -92.609375 L 52.421875 2.25 L 51.296875 2.25 L 15.375 -92.609375 C 12.90625 -98.816406 10.582031 -103.453125 8.40625 -106.515625 C 6.238281 -109.585938 3.4375 -111.125 0 -111.125 Z M 0 -111.125 "/></g></g></g><g fill="#36554a" fill-opacity="1"><g transform="translate(518.204307, 439.587067)"><g/></g></g><g fill="#36554a" fill-opacity="1"><g transform="translate(645.118363, 439.587067)"><g><path d="M 70.640625 -89.90625 C 71.171875 -89.90625 71.4375 -88.929688 71.4375 -86.984375 C 71.4375 -85.035156 70.96875 -82.75 70.03125 -80.125 C 69.09375 -77.507812 67.828125 -75.007812 66.234375 -72.625 C 64.648438 -70.25 62.800781 -68.035156 60.6875 -65.984375 C 58.570312 -63.941406 56.332031 -62.175781 53.96875 -60.6875 C 48.875 -57.507812 44.257812 -55.921875 40.125 -55.921875 C 35.988281 -55.921875 32.894531 -56.929688 30.84375 -58.953125 C 28.800781 -60.972656 27.78125 -63.4375 27.78125 -66.34375 C 27.78125 -69.257812 28.5625 -72.113281 30.125 -74.90625 C 31.6875 -77.695312 33.863281 -80.4375 36.65625 -83.125 C 42.957031 -89.039062 50.535156 -93.488281 59.390625 -96.46875 C 66.171875 -98.738281 74.972656 -99.875 85.796875 -99.875 C 92.671875 -99.875 99.3125 -99.175781 105.71875 -97.78125 C 111.101562 -96.8125 115.644531 -96.328125 119.34375 -96.328125 C 123.050781 -96.328125 126.238281 -96.675781 128.90625 -97.375 C 131.582031 -98.070312 134.070312 -99 136.375 -100.15625 C 141.28125 -102.65625 144.796875 -105.566406 146.921875 -108.890625 C 147.398438 -109.703125 147.878906 -110.109375 148.359375 -110.109375 C 148.835938 -110.109375 149.078125 -109.816406 149.078125 -109.234375 C 149.078125 -108.660156 148.222656 -107.335938 146.515625 -105.265625 C 144.804688 -103.203125 142.546875 -101.253906 139.734375 -99.421875 C 136.921875 -97.597656 133.78125 -96.015625 130.3125 -94.671875 C 123 -91.878906 115.351562 -90.484375 107.375 -90.484375 C 102.375 -90.484375 96.914062 -91.109375 91 -92.359375 C 81.800781 -94.234375 75.070312 -95.171875 70.8125 -95.171875 C 66.5625 -95.171875 62.921875 -94.75 59.890625 -93.90625 C 56.859375 -93.070312 53.898438 -91.941406 51.015625 -90.515625 C 48.128906 -89.097656 45.398438 -87.453125 42.828125 -85.578125 C 40.253906 -83.703125 38.003906 -81.707031 36.078125 -79.59375 C 31.890625 -74.96875 29.796875 -70.640625 29.796875 -66.609375 C 29.796875 -62.847656 31.484375 -60.269531 34.859375 -58.875 C 35.960938 -58.445312 37.351562 -58.234375 39.03125 -58.234375 C 40.71875 -58.234375 42.628906 -58.75 44.765625 -59.78125 C 46.910156 -60.8125 49.066406 -62.179688 51.234375 -63.890625 C 53.398438 -65.597656 55.515625 -67.519531 57.578125 -69.65625 C 59.648438 -71.800781 61.53125 -73.984375 63.21875 -76.203125 C 66.863281 -81.054688 69.050781 -85.023438 69.78125 -88.109375 C 70.0625 -89.304688 70.347656 -89.90625 70.640625 -89.90625 Z M -7.71875 -14.640625 C -7.71875 -13.679688 -8.113281 -12.84375 -8.90625 -12.125 C -9.707031 -11.40625 -10.753906 -11.046875 -12.046875 -11.046875 C -13.347656 -11.046875 -14.40625 -11.285156 -15.21875 -11.765625 L -15.21875 -11.328125 C -15.21875 -6.710938 -11.925781 -3.753906 -5.34375 -2.453125 C -3.320312 -2.066406 -0.832031 -1.875 2.125 -1.875 C 5.082031 -1.875 8.484375 -2.535156 12.328125 -3.859375 C 16.179688 -5.179688 20.007812 -7.164062 23.8125 -9.8125 C 31.894531 -15.4375 39.28125 -23.519531 45.96875 -34.0625 C 48.082031 -37.375 50.488281 -40.738281 53.1875 -44.15625 L 62.0625 -55.0625 C 69.5625 -63.71875 77.0625 -71.195312 84.5625 -77.5 C 91.0625 -82.9375 95.203125 -85.65625 96.984375 -85.65625 C 97.648438 -85.65625 97.984375 -85.4375 97.984375 -85 C 97.984375 -84.519531 97.3125 -83.847656 95.96875 -82.984375 C 94.625 -82.117188 93.289062 -81.203125 91.96875 -80.234375 C 90.644531 -79.273438 89.394531 -78.242188 88.21875 -77.140625 C 87.039062 -76.035156 85.875 -74.796875 84.71875 -73.421875 C 83.5625 -72.046875 82.285156 -70.394531 80.890625 -68.46875 C 79.492188 -66.550781 77.929688 -64.269531 76.203125 -61.625 L 70.140625 -52.390625 C 47.429688 -17.367188 24.242188 0.140625 0.578125 0.140625 C -4.566406 0.140625 -8.894531 -0.914062 -12.40625 -3.03125 C -16.207031 -5.34375 -18.109375 -8.300781 -18.109375 -11.90625 C -18.109375 -13.832031 -17.554688 -15.203125 -16.453125 -16.015625 C -14.816406 -17.316406 -13.375 -17.96875 -12.125 -17.96875 C -9.1875 -17.96875 -7.71875 -16.859375 -7.71875 -14.640625 Z M -7.71875 -14.640625 "/></g></g></g><g fill="#36554a" fill-opacity="1"><g transform="translate(727.292488, 439.587067)"><g><path d="M 38.203125 -65.234375 C 37.503906 -64.609375 36.722656 -64.113281 35.859375 -63.75 C 34.992188 -63.394531 34.007812 -63.21875 32.90625 -63.21875 C 31.800781 -63.21875 30.847656 -63.632812 30.046875 -64.46875 C 29.253906 -65.3125 28.859375 -66.257812 28.859375 -67.3125 C 28.859375 -68.375 29.050781 -69.3125 29.4375 -70.125 C 29.820312 -70.945312 30.351562 -71.671875 31.03125 -72.296875 C 32.425781 -73.742188 33.953125 -74.46875 35.609375 -74.46875 C 37.265625 -74.46875 38.488281 -74.019531 39.28125 -73.125 C 40.082031 -72.238281 40.484375 -71.265625 40.484375 -70.203125 C 40.484375 -69.148438 40.273438 -68.210938 39.859375 -67.390625 C 39.453125 -66.578125 38.898438 -65.859375 38.203125 -65.234375 Z M -7.65625 -4.140625 C -7.65625 -2.628906 -6.234375 -1.875 -3.390625 -1.875 C -0.554688 -1.875 2.117188 -2.519531 4.640625 -3.8125 C 7.171875 -5.113281 9.722656 -6.738281 12.296875 -8.6875 C 14.867188 -10.644531 17.359375 -12.773438 19.765625 -15.078125 L 26.265625 -21.578125 C 28.191406 -23.597656 29.78125 -25.34375 31.03125 -26.8125 C 32.28125 -28.28125 33.023438 -29.132812 33.265625 -29.375 L 34.703125 -28.0625 C 34.222656 -27.582031 33.320312 -26.5625 32 -25 C 30.675781 -23.4375 29.023438 -21.609375 27.046875 -19.515625 C 25.078125 -17.421875 22.863281 -15.21875 20.40625 -12.90625 C 17.957031 -10.601562 15.390625 -8.488281 12.703125 -6.5625 C 6.492188 -2.09375 1.054688 0.140625 -3.609375 0.140625 C -6.585938 0.140625 -8.96875 -0.398438 -10.75 -1.484375 C -12.53125 -2.566406 -13.421875 -3.800781 -13.421875 -5.1875 C -13.421875 -6.582031 -13.273438 -7.832031 -12.984375 -8.9375 C -12.703125 -10.050781 -12.175781 -11.375 -11.40625 -12.90625 C -10.632812 -14.445312 -9.5625 -16.253906 -8.1875 -18.328125 C -6.820312 -20.398438 -5.039062 -22.878906 -2.84375 -25.765625 C -0.65625 -28.648438 2 -31.992188 5.125 -35.796875 L 16.234375 -48.921875 C 16.816406 -48.773438 17.992188 -48.703125 19.765625 -48.703125 L 23.15625 -48.703125 C 24.414062 -48.703125 25.425781 -48.75 26.1875 -48.84375 C 10.269531 -29.84375 1.3125 -19.03125 -0.6875 -16.40625 C -2.6875 -13.789062 -4.164062 -11.738281 -5.125 -10.25 C -6.8125 -7.695312 -7.65625 -5.660156 -7.65625 -4.140625 Z M -7.65625 -4.140625 "/></g></g></g><g fill="#36554a" fill-opacity="1"><g transform="translate(759.535357, 439.587067)"><g><path d="M 2.53125 -1.375 C 1.414062 -1.613281 0.0195312 -1.734375 -1.65625 -1.734375 C -4.59375 -1.734375 -6.851562 -1.492188 -8.4375 -1.015625 L 16.59375 -36.796875 C 19.71875 -41.179688 21.332031 -43.78125 21.4375 -44.59375 C 21.625 -46.175781 21.117188 -46.96875 19.921875 -46.96875 C 18.140625 -46.96875 13.710938 -42.566406 6.640625 -33.765625 L 2.015625 -28.0625 C 1.628906 -27.875 1.234375 -27.984375 0.828125 -28.390625 C 0.421875 -28.804688 0.3125 -29.109375 0.5 -29.296875 C 1.894531 -30.785156 3.46875 -32.671875 5.21875 -34.953125 C 6.976562 -37.242188 8.820312 -39.445312 10.75 -41.5625 C 15.46875 -46.800781 19.390625 -49.421875 22.515625 -49.421875 C 27.804688 -49.421875 29.488281 -46.707031 27.5625 -41.28125 C 27.175781 -40.125 26.335938 -38.628906 25.046875 -36.796875 L 9.890625 -15.734375 L 10.25 -14.9375 C 23.1875 -29.894531 32.6875 -39.5625 38.75 -43.9375 C 43.5625 -47.59375 48.007812 -49.421875 52.09375 -49.421875 C 54.882812 -49.421875 57.097656 -48.65625 58.734375 -47.125 C 60.035156 -45.820312 60.648438 -44.445312 60.578125 -43 C 60.503906 -41.5625 60.40625 -40.46875 60.28125 -39.71875 C 60.164062 -38.976562 59.988281 -38.222656 59.75 -37.453125 C 59.164062 -35.859375 58.15625 -33.929688 56.71875 -31.671875 C 67.007812 -42.160156 74.800781 -47.957031 80.09375 -49.0625 C 81.15625 -49.300781 82.320312 -49.421875 83.59375 -49.421875 C 84.875 -49.421875 86.050781 -49.203125 87.125 -48.765625 C 88.207031 -48.335938 89.085938 -47.789062 89.765625 -47.125 C 91.015625 -45.875 91.625 -44.367188 91.59375 -42.609375 C 91.570312 -40.847656 91.238281 -39.050781 90.59375 -37.21875 C 89.945312 -35.394531 88.851562 -33.234375 87.3125 -30.734375 C 84.09375 -25.585938 78.65625 -18.878906 71 -10.609375 C 67.820312 -7.285156 66.160156 -5.347656 66.015625 -4.796875 C 65.878906 -4.242188 65.8125 -3.820312 65.8125 -3.53125 L 65.296875 -3.46875 C 65.296875 -2.3125 66.664062 -1.734375 69.40625 -1.734375 C 72.15625 -1.734375 74.671875 -2.34375 76.953125 -3.5625 C 79.242188 -4.789062 81.566406 -6.351562 83.921875 -8.25 C 86.273438 -10.15625 88.570312 -12.238281 90.8125 -14.5 C 93.050781 -16.757812 95.082031 -18.898438 96.90625 -20.921875 L 101.53125 -26.265625 C 102.78125 -27.804688 103.617188 -28.816406 104.046875 -29.296875 L 105.5625 -28.0625 C 105.082031 -27.582031 104.179688 -26.535156 102.859375 -24.921875 C 101.535156 -23.316406 99.921875 -21.453125 98.015625 -19.328125 C 96.117188 -17.210938 93.992188 -15 91.640625 -12.6875 C 89.285156 -10.382812 86.859375 -8.269531 84.359375 -6.34375 C 78.535156 -1.875 73.648438 0.359375 69.703125 0.359375 C 65.515625 0.359375 62.554688 -0.742188 60.828125 -2.953125 C 60.296875 -3.628906 60.03125 -4.421875 60.03125 -5.328125 C 60.03125 -6.242188 60.1875 -7.300781 60.5 -8.5 C 60.8125 -9.707031 61.523438 -11.226562 62.640625 -13.0625 C 64.847656 -16.8125 68.066406 -21.066406 72.296875 -25.828125 C 76.535156 -30.597656 79.289062 -33.800781 80.5625 -35.4375 C 81.84375 -37.070312 82.890625 -38.488281 83.703125 -39.6875 C 85.191406 -42.039062 85.9375 -43.820312 85.9375 -45.03125 C 85.9375 -46.757812 84.710938 -47.625 82.265625 -47.625 C 77.453125 -47.625 69.128906 -41.609375 57.296875 -29.578125 C 52.242188 -24.484375 46.613281 -18.015625 40.40625 -10.171875 L 33.703125 -1.375 C 32.585938 -1.613281 31.191406 -1.734375 29.515625 -1.734375 C 26.773438 -1.734375 24.515625 -1.492188 22.734375 -1.015625 C 29.847656 -9.722656 33.765625 -14.53125 34.484375 -15.4375 C 45.316406 -29.726562 51.304688 -37.8125 52.453125 -39.6875 C 54.046875 -42.425781 54.84375 -44.328125 54.84375 -45.390625 C 54.84375 -46.878906 53.664062 -47.625 51.3125 -47.625 C 48.175781 -47.625 44.519531 -45.941406 40.34375 -42.578125 C 31.53125 -35.546875 21.160156 -24.742188 9.234375 -10.171875 Z M 2.53125 -1.375 "/></g></g></g><g fill="#36554a" fill-opacity="1"><g transform="translate(862.63442, 439.587067)"><g><path d="M 27.890625 -6.234375 C 24.835938 -4.285156 21.539062 -2.6875 18 -1.4375 C 14.46875 -0.1875 11.113281 0.4375 7.9375 0.4375 C 4.757812 0.4375 2.34375 0.113281 0.6875 -0.53125 C -0.96875 -1.1875 -2.328125 -2.09375 -3.390625 -3.25 C -7.910156 -8.15625 -7.882812 -15.394531 -3.3125 -24.96875 C -1.34375 -29.195312 1.632812 -33.054688 5.625 -36.546875 C 9.625 -40.035156 13.132812 -42.644531 16.15625 -44.375 C 22.03125 -47.738281 27.539062 -49.421875 32.6875 -49.421875 C 37.789062 -49.421875 40.460938 -47.835938 40.703125 -44.671875 C 41.035156 -39.523438 34.78125 -33.921875 21.9375 -27.859375 C 17.21875 -25.640625 11.273438 -23.351562 4.109375 -21 C 1.273438 -16.382812 -0.140625 -12.617188 -0.140625 -9.703125 C -0.140625 -6.796875 0.613281 -4.726562 2.125 -3.5 C 3.644531 -2.269531 5.859375 -1.65625 8.765625 -1.65625 C 11.679688 -1.65625 14.832031 -2.28125 18.21875 -3.53125 C 21.613281 -4.78125 24.789062 -6.367188 27.75 -8.296875 C 30.707031 -10.222656 33.390625 -12.316406 35.796875 -14.578125 C 38.203125 -16.835938 40.328125 -19 42.171875 -21.0625 C 44.023438 -23.132812 45.539062 -24.925781 46.71875 -26.4375 C 47.894531 -27.957031 48.703125 -28.910156 49.140625 -29.296875 L 50.65625 -28.0625 C 50.03125 -27.539062 49.078125 -26.460938 47.796875 -24.828125 C 46.523438 -23.191406 44.914062 -21.328125 42.96875 -19.234375 C 41.019531 -17.140625 38.78125 -14.9375 36.25 -12.625 C 33.726562 -10.320312 30.941406 -8.191406 27.890625 -6.234375 Z M 5.765625 -23.53125 C 20.296875 -28.625 29.65625 -33.695312 33.84375 -38.75 C 35.238281 -40.4375 35.9375 -42.070312 35.9375 -43.65625 C 35.9375 -46.351562 34.6875 -47.703125 32.1875 -47.703125 C 27.757812 -47.703125 22.226562 -43.828125 15.59375 -36.078125 C 10.96875 -30.691406 7.691406 -26.507812 5.765625 -23.53125 Z M 5.765625 -23.53125 "/></g></g></g><g clip-path="url(#b8137d3178)"><g transform="matrix(1, 0, 0, 1, 99, 33)"><g clip-path="url(#b0de405f5f)"><g clip-path="url(#b23b1148f6)"><g mask="url(#e55a43f827)"><g transform="matrix(1, 0, 0, 1, 0, 0.000000000000035527)"><g clip-path="url(#c8a108b197)"><g clip-path="url(#0e3b375d8b)"><path fill="url(#99741ec258)" d="M 174.164062 0.0859375 L 174.164062 742.585938 L 841.664062 742.585938 L 841.664062 0.0859375 Z M 174.164062 0.0859375 " fill-rule="nonzero"/></g></g></g></g></g></g></g></g></svg>