<svg width="138" height="138" viewBox="0 0 138 138" fill="none" xmlns="http://www.w3.org/2000/svg">
<path d="M72.8637 52.4059C72.5503 52.6048 72.4088 52.9892 72.5191 53.3438C72.6293 53.6985 72.9676 53.9425 73.3344 53.9212L101.862 52.8561C102.153 52.8454 102.416 52.6814 102.555 52.4256L116.541 26.5358C116.719 26.2067 116.652 25.7993 116.379 25.5442C116.105 25.2889 115.694 25.251 115.378 25.4512L107.821 30.2422L101.064 18.3002C94.6766 7.01218 82.6518 0 69.6818 0C56.8241 0 44.8962 6.89219 38.4676 18.0092C38.4528 18.0345 38.4372 18.0591 38.4226 18.0846C38.382 18.1553 38.3416 18.2263 38.3013 18.2975C38.3006 18.2986 38.3 18.2996 38.2995 18.3008L25.0146 41.7791C24.9061 41.9706 24.8791 42.1975 24.9395 42.4092C24.9998 42.6208 25.1426 42.7994 25.3357 42.905L52.205 57.5843C52.3301 57.6527 52.4651 57.6851 52.5985 57.6851C52.8852 57.6851 53.1634 57.5347 53.3143 57.2677L69.6813 28.3423L80.5424 47.5372L72.8637 52.4059ZM26.8559 41.8621L39.7298 19.1102C39.7308 19.1084 39.7319 19.1065 39.7329 19.1046C39.7838 19.0146 39.8361 18.9255 39.8879 18.8361C42.4496 14.4351 47.0038 11.814 52.0961 11.814C52.113 11.814 52.1301 11.814 52.147 11.8142C57.2805 11.8318 61.8551 14.5102 64.3838 18.9791L68.7372 26.6732L52.2828 55.7535L26.8559 41.8621ZM70.3968 26.2684L65.8142 18.1698C62.9911 13.1807 57.8841 10.1901 52.1526 10.1706C52.1334 10.1704 52.115 10.1704 52.0957 10.1704C49.7498 10.1704 47.5061 10.6696 45.4785 11.6004C51.838 5.31696 60.5121 1.64344 69.6818 1.64344C82.0605 1.64344 93.5372 8.33611 99.6334 19.1094L106.816 31.8034C106.927 31.9994 107.114 32.1414 107.332 32.1961C107.55 32.2505 107.781 32.2135 107.972 32.0929L113.598 28.5257L101.332 51.2312L76.3125 52.1655L82.0828 48.5064C82.4526 48.2719 82.5734 47.7888 82.3579 47.4077L70.3968 26.2684Z" fill="black"/>
<path d="M62.577 98.1585C62.5765 98.1585 62.576 98.1585 62.5754 98.1585L29.3405 98.221L40.6621 79.2943L48.6895 83.5645C49.0176 83.739 49.4213 83.6718 49.6754 83.4008C49.9292 83.1299 49.9698 82.7223 49.7745 82.4065L34.7528 58.1305C34.5997 57.8832 34.3325 57.7362 34.0363 57.7413L4.61694 58.3736C4.24302 58.3817 3.92185 58.6412 3.83507 59.005C3.74845 59.3689 3.9184 59.7452 4.24861 59.9208L12.1479 64.1234L5.10428 75.8989C-1.55355 87.0294 -1.70854 100.949 4.69995 112.225C11.054 123.405 22.942 130.371 35.7859 130.464C35.8132 130.465 35.8402 130.466 35.8675 130.466C35.9273 130.466 35.9871 130.466 36.0468 130.466C36.0476 130.466 36.0484 130.466 36.0491 130.466C36.0509 130.466 36.0527 130.466 36.0545 130.466C36.0751 130.466 36.0961 130.466 36.1163 130.466H36.1168L63.0928 130.416C63.3129 130.415 63.5236 130.326 63.6777 130.169C63.8319 130.012 63.9166 129.8 63.9129 129.58L63.399 98.9665C63.3911 98.5181 63.0254 98.1585 62.577 98.1585ZM36.0284 128.822C35.9521 128.822 35.876 128.821 35.7999 128.82C30.6899 128.769 26.1463 126.086 23.635 121.632C21.1138 117.16 21.1824 111.86 23.8181 107.453L28.3563 99.8664L61.7688 99.8034L62.2552 128.773L36.1134 128.823C36.0851 128.823 36.0567 128.822 36.0284 128.822ZM6.12858 111.413C0.0123329 100.65 0.160094 87.3657 6.5145 76.7424L14.0017 64.2254C14.1172 64.0323 14.1485 63.8002 14.0882 63.5833C14.0278 63.3665 13.8812 63.1839 13.6825 63.0782L7.8013 59.9492L33.6022 59.3948L46.7764 80.6851L40.7443 77.4763C40.3574 77.2705 39.8779 77.4043 39.6529 77.7801L27.1845 98.6238L22.4077 106.61C19.4649 111.529 19.3887 117.447 22.2034 122.439C23.3657 124.501 24.919 126.222 26.7445 127.535C18.1392 125.111 10.6592 119.384 6.12858 111.413Z" fill="black"/>
<path d="M133.031 73.603C133.016 73.5783 133.003 73.5534 132.988 73.5289L132.912 73.4016C132.895 73.3732 132.879 73.3445 132.862 73.316L118.97 50.1914C118.857 50.0029 118.673 49.8674 118.459 49.8158C118.245 49.7644 118.019 49.8005 117.832 49.9166L91.8238 66.0724C91.7284 66.1316 91.6494 66.2074 91.5881 66.2935C91.496 66.4227 91.4439 66.5755 91.4365 66.7323C91.4291 66.889 91.4663 67.0495 91.5531 67.1938L108.667 95.6838L87.4198 95.6833V86.6435C87.4198 86.2702 87.1685 85.9441 86.8078 85.8488C86.4462 85.7538 86.0671 85.9137 85.8832 86.2379L71.4989 111.591C71.3551 111.844 71.3562 112.155 71.502 112.407L85.8863 137.33C86.0356 137.589 86.3096 137.741 86.598 137.741C86.6685 137.741 86.74 137.732 86.8107 137.713C87.17 137.617 87.4198 137.291 87.4198 136.919V127.942H101.952C114.922 127.942 126.946 120.93 133.334 109.642C139.667 98.4501 139.542 84.6733 133.031 73.603ZM131.453 74.1623C131.577 74.3694 131.695 74.5795 131.815 74.7885C134.191 79.1262 134.153 84.2394 131.687 88.5621C129.144 93.0214 124.56 95.6834 119.425 95.6834L110.585 95.6833L93.379 67.041L117.991 51.7523L131.453 74.1623ZM131.904 108.832C125.807 119.605 114.33 126.298 101.952 126.298H86.598C86.1441 126.298 85.7762 126.666 85.7762 127.12V133.851L73.1606 111.993L85.7762 89.7572V96.5049C85.7762 96.9589 86.1441 97.3267 86.598 97.3267L110.12 97.3272L119.425 97.3274C119.425 97.3274 119.425 97.3274 119.425 97.3274C125.157 97.3274 130.275 94.3549 133.115 89.3768C134.286 87.3233 134.966 85.11 135.157 82.8715C137.491 91.4986 136.418 100.853 131.904 108.832Z" fill="black"/>
</svg>
